<?xml version="1.0" encoding="utf-8"?>
<svg xmlns="http://www.w3.org/2000/svg" style="margin: auto; background: none; display: block; shape-rendering: auto;" width="280" height="250" preserveAspectRatio="xMidYMid">
<style type="text/css">
  text {
    text-anchor: middle; font-size: 67px; opacity: 0;
  }
</style>
<g style="transform-origin:140px 125px;transform:scale(1)">
<g transform="translate(140,125)">
  <g transform="translate(0,0)"><g class="path" style="transform: matrix(1, 0, 0, 1, 0, 0); transform-origin: -100.83px -6.59745px; animation: 1s linear -0.5775s infinite normal forwards running bounce-57c83f15-3e0d-4cfa-a26a-53ba2d411a27;"><path d="M11.06-49.58L11.06-11.52L11.06-11.52Q11.06-7.91 12.56-6.16L12.56-6.16L12.56-6.16Q14.07-4.42 16.75-4.42L16.75-4.42L16.75-4.42Q18.02-4.42 19.23-4.72L19.23-4.72L19.23-4.72Q20.44-5.03 21.37-5.43L21.37-5.43L22.85-0.54L22.85-0.54Q21.64 0 19.87 0.40L19.87 0.40L19.87 0.40Q18.09 0.80 15.95 0.80L15.95 0.80L15.95 0.80Q13.60 0.80 11.62 0.13L11.62 0.13L11.62 0.13Q9.65-0.54 8.17-1.94L8.17-1.94L8.17-1.94Q6.70-3.35 5.86-5.56L5.86-5.56L5.86-5.56Q5.03-7.77 5.03-10.92L5.03-10.92L5.03-49.58L11.06-49.58" fill="#ffd1d7" stroke="none" stroke-width="none" transform="translate(-114.77001953125,17.792549362182616)" style="fill: rgb(255, 209, 215);"></path></g><g class="path" style="transform: matrix(1, 0, 0, 1, 0, 0); transform-origin: -72.56px 0.372549px; animation: 1s linear -0.495s infinite normal forwards running bounce-57c83f15-3e0d-4cfa-a26a-53ba2d411a27;"><path d="M53.40-17.42L53.40-17.42L53.40-17.42Q53.40-20.03 52.56-22.38L52.56-22.38L52.56-22.38Q51.72-24.72 50.22-26.46L50.22-26.46L50.22-26.46Q48.71-28.21 46.67-29.25L46.67-29.25L46.67-29.25Q44.62-30.28 42.21-30.28L42.21-30.28L42.21-30.28Q36.92-30.28 33.97-26.80L33.97-26.80L33.97-26.80Q31.02-23.32 31.02-17.55L31.02-17.55L31.02-17.55Q31.02-14.94 31.86-12.56L31.86-12.56L31.86-12.56Q32.70-10.18 34.20-8.41L34.20-8.41L34.20-8.41Q35.71-6.63 37.75-5.59L37.75-5.59L37.75-5.59Q39.80-4.56 42.21-4.56L42.21-4.56L42.21-4.56Q44.82-4.56 46.90-5.49L46.90-5.49L46.90-5.49Q48.98-6.43 50.42-8.14L50.42-8.14L50.42-8.14Q51.86-9.85 52.63-12.19L52.63-12.19L52.63-12.19Q53.40-14.54 53.40-17.42zM24.86-17.42L24.86-17.42L24.86-17.42Q24.86-21.64 26.20-25.02L26.20-25.02L26.20-25.02Q27.54-28.41 29.85-30.75L29.85-30.75L29.85-30.75Q32.16-33.10 35.34-34.37L35.34-34.37L35.34-34.37Q38.53-35.64 42.21-35.64L42.21-35.64L42.21-35.64Q45.83-35.64 49.01-34.37L49.01-34.37L49.01-34.37Q52.19-33.10 54.54-30.75L54.54-30.75L54.54-30.75Q56.88-28.41 58.22-25.06L58.22-25.06L58.22-25.06Q59.56-21.71 59.56-17.55L59.56-17.55L59.56-17.55Q59.56-13.40 58.26-10.02L58.26-10.02L58.26-10.02Q56.95-6.63 54.61-4.22L54.61-4.22L54.61-4.22Q52.26-1.81 49.08-0.50L49.08-0.50L49.08-0.50Q45.90 0.80 42.21 0.80L42.21 0.80L42.21 0.80Q38.46 0.80 35.28-0.54L35.28-0.54L35.28-0.54Q32.09-1.88 29.78-4.29L29.78-4.29L29.78-4.29Q27.47-6.70 26.16-10.05L26.16-10.05L26.16-10.05Q24.86-13.40 24.86-17.42" fill="#ffd1d7" stroke="none" stroke-width="none" transform="translate(-114.77001953125,17.792549362182616)" style="fill: rgb(245, 222, 179);"></path></g><g class="path" style="transform: matrix(1, 0, 0, 1, 0, 0); transform-origin: -31.69px 0.372549px; animation: 1s linear -0.4125s infinite normal forwards running bounce-57c83f15-3e0d-4cfa-a26a-53ba2d411a27;"><path d="M65.26-17.22L65.26-17.22L65.26-17.22Q65.26-21.11 66.46-24.49L66.46-24.49L66.46-24.49Q67.67-27.87 69.85-30.35L69.85-30.35L69.85-30.35Q72.03-32.83 75.07-34.24L75.07-34.24L75.07-34.24Q78.12-35.64 81.74-35.64L81.74-35.64L81.74-35.64Q84.76-35.64 87.20-34.61L87.20-34.61L87.20-34.61Q89.65-33.57 91.46-32.03L91.46-32.03L91.46-34.84L96.95-34.84L96.95-8.44L96.95-8.44Q96.95-5.90 98.19-5.13L98.19-5.13L98.19-5.13Q99.43-4.36 100.90-4.36L100.90-4.36L99.63 0.34L99.63 0.34Q93.20 0.34 91.86-4.89L91.86-4.89L91.86-4.89Q91.05-3.82 90.01-2.78L90.01-2.78L90.01-2.78Q88.98-1.74 87.64-0.94L87.64-0.94L87.64-0.94Q86.30-0.13 84.62 0.34L84.62 0.34L84.62 0.34Q82.95 0.80 80.94 0.80L80.94 0.80L80.94 0.80Q77.65 0.80 74.81-0.47L74.81-0.47L74.81-0.47Q71.96-1.74 69.85-4.09L69.85-4.09L69.85-4.09Q67.74-6.43 66.50-9.75L66.50-9.75L66.50-9.75Q65.26-13.07 65.26-17.22zM82.28-4.56L82.28-4.56L82.28-4.56Q84.82-4.56 87.10-5.76L87.10-5.76L87.10-5.76Q89.38-6.97 90.92-8.91L90.92-8.91L90.92-27.60L90.92-27.60Q89.11-28.88 86.93-29.65L86.93-29.65L86.93-29.65Q84.76-30.42 82.34-30.42L82.34-30.42L82.34-30.42Q79.93-30.42 77.92-29.48L77.92-29.48L77.92-29.48Q75.91-28.54 74.47-26.83L74.47-26.83L74.47-26.83Q73.03-25.13 72.23-22.71L72.23-22.71L72.23-22.71Q71.42-20.30 71.42-17.42L71.42-17.42L71.42-17.42Q71.42-14.61 72.23-12.23L72.23-12.23L72.23-12.23Q73.03-9.85 74.50-8.14L74.50-8.14L74.50-8.14Q75.98-6.43 77.95-5.49L77.95-5.49L77.95-5.49Q79.93-4.56 82.28-4.56" fill="#ffd1d7" stroke="none" stroke-width="none" transform="translate(-114.77001953125,17.792549362182616)" style="fill: rgb(149, 19, 66);"></path></g><g class="path" style="transform: matrix(1, 0, 0, 1, 0, 0); transform-origin: 8.84498px -6.59745px; animation: 1s linear -0.33s infinite normal forwards running bounce-57c83f15-3e0d-4cfa-a26a-53ba2d411a27;"><path d="M121.47 0.80L121.47 0.80L121.47 0.80Q118.26 0.80 115.41-0.47L115.41-0.47L115.41-0.47Q112.56-1.74 110.45-4.09L110.45-4.09L110.45-4.09Q108.34-6.43 107.13-9.75L107.13-9.75L107.13-9.75Q105.93-13.07 105.93-17.22L105.93-17.22L105.93-17.22Q105.93-21.17 107.17-24.56L107.17-24.56L107.17-24.56Q108.41-27.94 110.52-30.38L110.52-30.38L110.52-30.38Q112.63-32.83 115.44-34.24L115.44-34.24L115.44-34.24Q118.26-35.64 121.40-35.64L121.40-35.64L121.40-35.64Q124.89-35.64 127.40-34.24L127.40-34.24L127.40-34.24Q129.91-32.83 131.32-31.36L131.32-31.36L131.32-49.58L137.35-49.58L137.35-8.44L137.35-8.44Q137.35-5.90 138.59-5.13L138.59-5.13L138.59-5.13Q139.83-4.36 141.30-4.36L141.30-4.36L140.03 0.34L140.03 0.34Q133.67 0.34 132.26-4.76L132.26-4.76L132.26-4.76Q130.72-2.61 128.10-0.90L128.10-0.90L128.10-0.90Q125.49 0.80 121.47 0.80zM122.81-4.56L122.81-4.56L122.81-4.56Q125.29-4.56 127.53-5.73L127.53-5.73L127.53-5.73Q129.78-6.90 131.32-8.78L131.32-8.78L131.32-26.06L131.32-26.06Q130.05-27.67 127.80-29.04L127.80-29.04L127.80-29.04Q125.56-30.42 122.74-30.42L122.74-30.42L122.74-30.42Q120.33-30.42 118.36-29.41L118.36-29.41L118.36-29.41Q116.38-28.41 114.97-26.67L114.97-26.67L114.97-26.67Q113.57-24.92 112.83-22.55L112.83-22.55L112.83-22.55Q112.09-20.17 112.09-17.42L112.09-17.42L112.09-17.42Q112.09-14.61 112.90-12.26L112.90-12.26L112.90-12.26Q113.70-9.92 115.14-8.21L115.14-8.21L115.14-8.21Q116.58-6.50 118.56-5.53L118.56-5.53L118.56-5.53Q120.53-4.56 122.81-4.56" fill="#ffd1d7" stroke="none" stroke-width="none" transform="translate(-114.77001953125,17.792549362182616)" style="fill: rgb(189, 135, 160);"></path></g><g class="path" style="transform: matrix(1, 0, 0, 1, 0, 0); transform-origin: 37.585px 0.372549px; animation: 1s linear -0.2475s infinite normal forwards running bounce-57c83f15-3e0d-4cfa-a26a-53ba2d411a27;"><path d="M155.37-34.84L155.37 0L149.34 0L149.34-34.84L155.37-34.84" fill="#ffd1d7" stroke="none" stroke-width="none" transform="translate(-114.77001953125,17.792549362182616)" style="fill: rgb(255, 209, 215);"></path></g><g class="path" style="transform: matrix(1, 0, 0, 1, 0, 0); transform-origin: 37.59px -27.2325px; animation: 1s linear -0.165s infinite normal forwards running bounce-57c83f15-3e0d-4cfa-a26a-53ba2d411a27;"><path d="M152.36-40.80L152.36-40.80L152.36-40.80Q150.62-40.80 149.38-42.04L149.38-42.04L149.38-42.04Q148.14-43.28 148.14-45.02L148.14-45.02L148.14-45.02Q148.14-46.97 149.28-48.11L149.28-48.11L149.28-48.11Q150.42-49.25 152.36-49.25L152.36-49.25L152.36-49.25Q154.10-49.25 155.34-48.01L155.34-48.01L155.34-48.01Q156.58-46.77 156.58-45.02L156.58-45.02L156.58-45.02Q156.58-43.08 155.44-41.94L155.44-41.94L155.44-41.94Q154.30-40.80 152.36-40.80" fill="#ffd1d7" stroke="none" stroke-width="none" transform="translate(-114.77001953125,17.792549362182616)" style="fill: rgb(245, 222, 179);"></path></g><g class="path" style="transform: matrix(1, 0, 0, 1, 0, 0); transform-origin: 65.96px -0.0274506px; animation: 1s linear -0.0825s infinite normal forwards running bounce-57c83f15-3e0d-4cfa-a26a-53ba2d411a27;"><path d="M171.92-34.84L171.92-29.01L171.92-29.01Q173.80-31.83 176.71-33.73L176.71-33.73L176.71-33.73Q179.63-35.64 183.65-35.64L183.65-35.64L183.65-35.64Q189.54-35.64 192.46-32.09L192.46-32.09L192.46-32.09Q195.37-28.54 195.37-22.71L195.37-22.71L195.37 0L189.34 0L189.34-22.04L189.34-22.04Q189.34-25.86 187.60-28.11L187.60-28.11L187.60-28.11Q185.86-30.35 182.64-30.35L182.64-30.35L182.64-30.35Q181.10-30.35 179.63-29.78L179.63-29.78L179.63-29.78Q178.15-29.21 176.78-28.21L176.78-28.21L176.78-28.21Q175.41-27.20 174.23-25.86L174.23-25.86L174.23-25.86Q173.06-24.52 172.12-23.05L172.12-23.05L172.12 0L166.09 0L166.09-34.84L171.92-34.84" fill="#ffd1d7" stroke="none" stroke-width="none" transform="translate(-114.77001953125,17.792549362182616)" style="fill: rgb(149, 19, 66);"></path></g><g class="path" style="transform: matrix(1, 0, 0, 1, 0, 0); transform-origin: 104.22px 7.74255px; animation: 1s linear 0s infinite normal forwards running bounce-57c83f15-3e0d-4cfa-a26a-53ba2d411a27;"><path d="M219.56-35.64L219.56-35.64L219.56-35.64Q222.57-35.64 224.95-34.64L224.95-34.64L224.95-34.64Q227.33-33.63 229.07-32.16L229.07-32.16L229.07-34.84L234.57-34.84L234.57-0.80L234.57-0.80Q234.57 3.55 233.43 6.63L233.43 6.63L233.43 6.63Q232.29 9.71 230.18 11.69L230.18 11.69L230.18 11.69Q228.07 13.67 225.12 14.61L225.12 14.61L225.12 14.61Q222.17 15.54 218.55 15.54L218.55 15.54L218.55 15.54Q215.41 15.54 212.52 14.81L212.52 14.81L212.52 14.81Q209.64 14.07 207.37 12.60L207.37 12.60L209.58 7.37L209.58 7.37Q211.18 8.64 213.33 9.48L213.33 9.48L213.33 9.48Q215.47 10.32 218.55 10.32L218.55 10.32L218.55 10.32Q223.31 10.32 226.02 7.84L226.02 7.84L226.02 7.84Q228.74 5.36 228.74-0.20L228.74-0.20L228.74-4.49L228.74-4.49Q227.40-2.88 224.89-1.44L224.89-1.44L224.89-1.44Q222.37 0 218.89 0L218.89 0L218.89 0Q215.94 0 213.13-1.17L213.13-1.17L213.13-1.17Q210.31-2.35 208.17-4.59L208.17-4.59L208.17-4.59Q206.03-6.83 204.72-10.08L204.72-10.08L204.72-10.08Q203.41-13.33 203.41-17.55L203.41-17.55L203.41-17.55Q203.41-21.44 204.69-24.76L204.69-24.76L204.69-24.76Q205.96-28.07 208.14-30.49L208.14-30.49L208.14-30.49Q210.31-32.90 213.26-34.27L213.26-34.27L213.26-34.27Q216.21-35.64 219.56-35.64zM220.23-5.36L220.23-5.36L220.23-5.36Q222.91-5.36 225.05-6.57L225.05-6.57L225.05-6.57Q227.20-7.77 228.54-9.38L228.54-9.38L228.54-27.60L228.54-27.60Q227.00-28.68 224.99-29.55L224.99-29.55L224.99-29.55Q222.98-30.42 220.16-30.42L220.16-30.42L220.16-30.42Q218.09-30.42 216.18-29.58L216.18-29.58L216.18-29.58Q214.27-28.74 212.79-27.14L212.79-27.14L212.79-27.14Q211.32-25.53 210.45-23.22L210.45-23.22L210.45-23.22Q209.58-20.90 209.58-17.89L209.58-17.89L209.58-17.89Q209.58-15.01 210.45-12.70L210.45-12.70L210.45-12.70Q211.32-10.38 212.79-8.74L212.79-8.74L212.79-8.74Q214.27-7.10 216.18-6.23L216.18-6.23L216.18-6.23Q218.09-5.36 220.23-5.36" fill="#ffd1d7" stroke="none" stroke-width="none" transform="translate(-114.77001953125,17.792549362182616)" style="fill: rgb(189, 135, 160);"></path></g></g>
</g>
</g>
<style id="bounce-57c83f15-3e0d-4cfa-a26a-53ba2d411a27" data-anikit="">@keyframes bounce-57c83f15-3e0d-4cfa-a26a-53ba2d411a27
{
  0% {
    animation-timing-function: cubic-bezier(0.1361,0.2514,0.2175,0.8786);
    transform: translate(0,0px) scaleY(1);
  }
  37% {
    animation-timing-function: cubic-bezier(0.7674,0.1844,0.8382,0.7157);
    transform: translate(0,-39.96px) scaleY(1);
  }
  72% {
    animation-timing-function: cubic-bezier(0.1118,0.2149,0.2172,0.941);
    transform: translate(0,0px) scaleY(1);
  }
  87% {
    animation-timing-function: cubic-bezier(0.7494,0.2259,0.8209,0.6963);
    transform: translate(0,19.900000000000002px) scaleY(0.602);
  }
  100% {
    transform: translate(0,0px) scaleY(1);
  }
}</style></svg>