<svg xmlns="http://www.w3.org/2000/svg" xmlns:xlink="http://www.w3.org/1999/xlink" viewBox="0 0 1000 1000" width="1000" height="1000" preserveAspectRatio="xMidYMid meet" style="width: 100%; height: 100%; transform: translate3d(0px, 0px, 0px); content-visibility: visible;"><defs><clipPath id="__lottie_element_26686"><rect width="1000" height="1000" x="0" y="0"/></clipPath></defs><g clip-path="url(#__lottie_element_26686)"><g transform="matrix(1,0,0,1,224.75,224.75)" opacity="1" style="display: block;"><g opacity="1" transform="matrix(1,0,0,1,275.25,275.25)"><path fill="rgb(148,18,65)" fill-opacity="1" d=" M240.72300720214844,275 C240.72300720214844,275 -240.7220001220703,275 -240.7220001220703,275 C-259.65301513671875,275 -275,259.65301513671875 -275,240.72300720214844 C-275,240.72300720214844 -275,-240.7220001220703 -275,-240.7220001220703 C-275,-259.65301513671875 -259.65301513671875,-275 -240.7220001220703,-275 C-240.7220001220703,-275 240.72300720214844,-275 240.72300720214844,-275 C259.65399169921875,-275 275,-259.65301513671875 275,-240.7220001220703 C275,-240.7220001220703 275,240.72300720214844 275,240.72300720214844 C275,259.65301513671875 259.65399169921875,275 240.72300720214844,275z"/></g></g><g transform="matrix(1,0,0,1,153.25100708007812,426.15625)" opacity="1" style="display: block;"><g opacity="1" transform="matrix(1,0,0,1,31.25,31.25)"><path fill="rgb(255,210,127)" fill-opacity="1" d=" M15.333000183105469,31 C15.333000183105469,31 -15.333999633789062,31 -15.333999633789062,31 C-23.986000061035156,31 -31,23.986000061035156 -31,15.333000183105469 C-31,15.333000183105469 -31,-15.333000183105469 -31,-15.333000183105469 C-31,-23.986000061035156 -23.986000061035156,-31 -15.333999633789062,-31 C-15.333999633789062,-31 15.333000183105469,-31 15.333000183105469,-31 C23.985000610351562,-31 31,-23.986000061035156 31,-15.333000183105469 C31,-15.333000183105469 31,15.333000183105469 31,15.333000183105469 C31,23.986000061035156 23.985000610351562,31 15.333000183105469,31z"/></g></g><g transform="matrix(1,0,0,1,783.25,511.33160400390625)" opacity="1" style="display: block;"><g opacity="1" transform="matrix(1,0,0,1,31.25,31.25)"><path fill="rgb(245,222,179)" fill-opacity="1" d=" M15.333000183105469,31 C15.333000183105469,31 -15.333000183105469,31 -15.333000183105469,31 C-23.985000610351562,31 -31,23.985000610351562 -31,15.333000183105469 C-31,15.333000183105469 -31,-15.333000183105469 -31,-15.333000183105469 C-31,-23.985000610351562 -23.985000610351562,-31 -15.333000183105469,-31 C-15.333000183105469,-31 15.333000183105469,-31 15.333000183105469,-31 C23.985000610351562,-31 31,-23.985000610351562 31,-15.333000183105469 C31,-15.333000183105469 31,15.333000183105469 31,15.333000183105469 C31,23.985000610351562 23.985000610351562,31 15.333000183105469,31z"/></g></g><g transform="matrix(1,0,0,1,511.14111328125,783.25)" opacity="1" style="display: block;"><g opacity="1" transform="matrix(1,0,0,1,31.25,31.25)"><path fill="rgb(255,117,135)" fill-opacity="1" d=" M15.333000183105469,31 C15.333000183105469,31 -15.333999633789062,31 -15.333999633789062,31 C-23.986000061035156,31 -31,23.985000610351562 -31,15.333000183105469 C-31,15.333000183105469 -31,-15.333000183105469 -31,-15.333000183105469 C-31,-23.985000610351562 -23.986000061035156,-31 -15.333999633789062,-31 C-15.333999633789062,-31 15.333000183105469,-31 15.333000183105469,-31 C23.985000610351562,-31 31,-23.985000610351562 31,-15.333000183105469 C31,-15.333000183105469 31,15.333000183105469 31,15.333000183105469 C31,23.985000610351562 23.985000610351562,31 15.333000183105469,31z"/></g></g><g transform="matrix(1,0,0,1,428.3598937988281,154.25)" opacity="1" style="display: block;"><g opacity="1" transform="matrix(1,0,0,1,31.25,31.25)"><path fill="rgb(255,210,127)" fill-opacity="1" d=" M15.333000183105469,31 C15.333000183105469,31 -15.333000183105469,31 -15.333000183105469,31 C-23.985000610351562,31 -31,23.986000061035156 -31,15.333000183105469 C-31,15.333000183105469 -31,-15.333000183105469 -31,-15.333000183105469 C-31,-23.986000061035156 -23.985000610351562,-31 -15.333000183105469,-31 C-15.333000183105469,-31 15.333000183105469,-31 15.333000183105469,-31 C23.985000610351562,-31 31,-23.986000061035156 31,-15.333000183105469 C31,-15.333000183105469 31,15.333000183105469 31,15.333000183105469 C31,23.986000061035156 23.985000610351562,31 15.333000183105469,31z"/></g></g><g transform="matrix(1,0,0,1,286.25,298.25)" opacity="1" style="display: block;"><g opacity="1" transform="matrix(1,0,0,1,214.75,42.25)"><path fill="rgb(255,167,125)" fill-opacity="1" d=" M187.72300720214844,42 C187.72300720214844,42 -187.7220001220703,42 -187.7220001220703,42 C-202.51100158691406,42 -214.5,30.01099967956543 -214.5,15.222000122070312 C-214.5,15.222000122070312 -214.5,-15.222000122070312 -214.5,-15.222000122070312 C-214.5,-30.01099967956543 -202.51100158691406,-42 -187.7220001220703,-42 C-187.7220001220703,-42 187.72300720214844,-42 187.72300720214844,-42 C202.51100158691406,-42 214.5,-30.01099967956543 214.5,-15.222000122070312 C214.5,-15.222000122070312 214.5,15.222000122070312 214.5,15.222000122070312 C214.5,30.01099967956543 202.51100158691406,42 187.72300720214844,42z"/></g></g><g transform="matrix(1,0,0,1,286.25,413.25)" opacity="1" style="display: block;"><g opacity="1" transform="matrix(1,0,0,1,214.75,18.25)"><path fill="rgb(255,208,123)" fill-opacity="1" d=" M196.5,18 C196.5,18 -196.5,18 -196.5,18 C-206.4409942626953,18 -214.5,9.940999984741211 -214.5,0 C-214.5,-9.940999984741211 -206.4409942626953,-18 -196.5,-18 C-196.5,-18 196.5,-18 196.5,-18 C206.4409942626953,-18 214.5,-9.940999984741211 214.5,0 C214.5,9.940999984741211 206.4409942626953,18 196.5,18z"/></g></g><g transform="matrix(1,0,0,1,286.25,478.25)" opacity="1" style="display: block;"><g opacity="1" transform="matrix(1,0,0,1,214.75,90.75)"><path fill="rgb(255,210,127)" fill-opacity="1" d=" M184.94400024414062,90.5 C184.94400024414062,90.5 -184.94500732421875,90.5 -184.94500732421875,90.5 C-201.26800537109375,90.5 -214.5,77.26799774169922 -214.5,60.944000244140625 C-214.5,60.944000244140625 -214.5,-60.944000244140625 -214.5,-60.944000244140625 C-214.5,-77.26799774169922 -201.26800537109375,-90.5 -184.94500732421875,-90.5 C-184.94500732421875,-90.5 184.94400024414062,-90.5 184.94400024414062,-90.5 C201.26699829101562,-90.5 214.5,-77.26799774169922 214.5,-60.944000244140625 C214.5,-60.944000244140625 214.5,60.944000244140625 214.5,60.944000244140625 C214.5,77.26799774169922 201.26699829101562,90.5 184.94400024414062,90.5z"/></g></g></g></svg>