<svg xmlns="http://www.w3.org/2000/svg" xmlns:xlink="http://www.w3.org/1999/xlink" viewBox="0 0 3500 3500" width="3500" height="3500" preserveAspectRatio="xMidYMid meet" style="width: 100%; height: 100%; transform: translate3d(0px, 0px, 0px); content-visibility: visible;"><defs><clipPath id="__lottie_element_16465"><rect width="3500" height="3500" x="0" y="0"/></clipPath></defs><g clip-path="url(#__lottie_element_16465)"><g transform="matrix(1,0,0,1,1926,1609.884765625)" opacity="1" style="display: block;"><g opacity="1" transform="matrix(1,0,0,1,0,0)"><path stroke-linecap="round" stroke-linejoin="miter" fill-opacity="0" stroke-miterlimit="4" stroke="rgb(255,208,214)" stroke-opacity="1" stroke-width="163" d=" M-700,-424 C-700,-424 -700,424 -700,424"/></g></g><g transform="matrix(1,0,0,1,2283,1997.212890625)" opacity="1" style="display: block;"><g opacity="1" transform="matrix(1,0,0,1,0,0)"><path stroke-linecap="round" stroke-linejoin="miter" fill-opacity="0" stroke-miterlimit="4" stroke="rgb(161,77,108)" stroke-opacity="1" stroke-width="163" d=" M-700,-600 C-700,-600 -700,600 -700,600"/></g></g><g transform="matrix(1,0,0,1,2628,2051.27490234375)" opacity="1" style="display: block;"><g opacity="1" transform="matrix(1,0,0,1,0,0)"><path stroke-linecap="round" stroke-linejoin="miter" fill-opacity="0" stroke-miterlimit="4" stroke="rgb(245,222,179)" stroke-opacity="1" stroke-width="163" d=" M-700,-600 C-700,-600 -700,600 -700,600"/></g></g><g transform="matrix(1,0,0,1,2977,2025.47265625)" opacity="1" style="display: block;"><g opacity="1" transform="matrix(1,0,0,1,0,0)"><path stroke-linecap="round" stroke-linejoin="miter" fill-opacity="0" stroke-miterlimit="4" stroke="rgb(148,18,65)" stroke-opacity="1" stroke-width="163" d=" M-700,-424 C-700,-424 -700,424 -700,424"/></g></g></g></svg>