<svg height="85.333328" viewBox="0 0 85.333328 85.333328" width="85.333328" xmlns="http://www.w3.org/2000/svg"><g transform="matrix(.13333333 0 0 -.13333333 0 85.333331)"><path d="m640 320c0-176.73-143.27-320-320-320s-320 143.27-320 320 143.27 320 320 320 320-143.27 320-320" fill="#495672"/><path d="m300 400.004v-250c0-11.047 8.953-20 20-20s20 8.953 20 20v250c0 11.043-8.953 20-20 20s-20-8.957-20-20" fill="#77caa9"/><path d="m319.961 65.6797-.445.043-.446-.043c-140.711 0-185.179 119.7733-189.031 183.1053-.488 7.973 3.816 15.461 10.945 19.067 2.852 1.445 5.942 2.156 9.008 2.156 4.602 0 9.16-1.59 12.84-4.664.445-.371 45.09-37.5 100.156-67.824 15.168-8.352 27.301-17.77 37.012-27.5v-20.016c0-11.047 8.953-20 20-20s20 8.953 20 20v20.976c9.547 9.391 21.371 18.461 36.039 26.54 55.176 30.375 100.832 67.578 101.289 67.953 3.652 2.988 8.145 4.523 12.672 4.523 3.105 0 6.227-.723 9.105-2.191 7.079-3.621 11.34-11.086 10.856-19.02-3.852-63.332-48.52-183.1053-190-183.1053" fill="#404a5f"/><path d="m320 130.004c-11.047 0-20 8.953-20 20v20.016c8.051-8.071 14.438-16.36 19.516-24.446 5.281 8.406 11.976 17.035 20.484 25.406v-20.976c0-11.047-8.953-20-20-20" fill="#62a48d"/><g fill="#77caa9"><path d="m319.961 105.68s0 58.129 65.727 94.32c57.578 31.703 104.312 70 104.312 70s-10-164.32-170.039-164.32"/><path d="m319.961 105.68h20-10.691l10.691-.192v.192h-10.691l10.691-.192s.012.684.141 2.043c.449 4.774 2.394 17.121 10.031 31.223 7.687 14.125 20.754 30.207 45.203 43.726 59.461 32.774 106.785 71.625 107.34 72.051l-12.676 15.469-19.965 1.215 4.508-.274-4.504.309-.004-.035 4.508-.274-4.504.309c.031-.855-3.105-39.504-23.539-75.52-10.187-18.062-24.383-35.394-44.387-48.277-20.05-12.851-46.113-21.719-82.152-21.773v-20h20-20v-20.0003c43.406-.0586 78.355 11.3437 105.066 28.9613 20.055 13.175 35.414 29.617 47.043 46.55 17.446 25.446 26.719 51.969 31.836 72.25 5.098 20.293 5.996 34.434 6.059 35.344.48 7.949-3.77 15.399-10.863 19.024-7.09 3.625-15.618 2.711-21.778-2.34l-.441-.356c-4.797-3.906-48.637-38.879-100.84-67.593-36.93-20.235-56.66-47.891-66.23-70.332-9.665-22.489-9.833-39.645-9.852-41.508 0-5.266 2.133-10.4183 5.859-14.1409 3.723-3.7227 8.875-5.8594 14.141-5.8594z"/><path d="m319.074 105.68s0 58.129-65.726 94.32c-57.578 31.703-103.348 70-103.348 70s10-164.32 169.074-164.32"/><path d="m319.074 105.68h20c-.019 1.863-.187 19.019-9.851 41.508-9.571 22.441-29.301 50.097-66.231 70.332-27.777 15.289-53.004 32.363-71.156 45.55-9.082 6.594-16.402 12.219-21.414 16.164-2.508 1.977-4.438 3.528-5.727 4.575l-1.437 1.179-.422.352c-6.109 5.109-14.738 6.105-21.848 2.515-7.109-3.589-11.433-11.121-10.953-19.07.192-1.605 2.645-45.023 27.285-90.515 12.36-22.688 30.575-46 57.2-63.598 26.574-17.6329 61.367-29.0509 104.554-28.9923 5.266 0 10.418 2.1367 14.141 5.8594 3.726 3.7226 5.859 8.8749 5.859 14.1409h-20v20c-36.347.062-62.461 9.183-82.5 22.363-15.008 9.922-26.66 22.359-35.816 35.754-13.731 20.055-21.629 42.281-25.891 59.379-2.137 8.539-3.383 15.777-4.082 20.765-.347 2.493-.562 4.426-.683 5.676l-.122 1.352-.019.269-2.566-.179 2.57.156-.004.023-2.566-.179 2.57.156-19.965-1.215-12.836-15.34c.586-.457 46.988-39.359 106.535-72.18 28.797-15.953 41.934-35.457 48.793-51.128 3.375-7.829 5.039-14.688 5.84-19.387.402-2.352.59-4.156.672-5.258l.066-1.102.004-.117 10.684.192h-10.684v-.192l10.684.192h-10.684 20v20z"/></g><path d="m242.027 322.027c-35.527 8.157-62.027 39.969-62.027 77.973 0 3.387.211 6.723.617 10 4.094-32.797 28.035-59.426 59.422-67.488-.027-.832-.039-1.672-.039-2.512 0-6.18.699-12.195 2.027-17.973" fill="#404a5f"/><path d="m397.973 322.027c1.328 5.778 2.027 11.793 2.027 17.973 0 .84-.012 1.68-.039 2.512 31.387 8.062 55.328 34.691 59.422 67.488.406-3.277.617-6.613.617-10 0-38.004-26.5-69.816-62.027-77.973" fill="#404a5f"/><path d="m300 262.52c-28.781 7.41-51.297 30.437-57.973 59.507 2.735-.629 5.516-1.113 8.348-1.453 10.566-18.621 28.391-32.59 49.625-38.054zm40 0v20c21.234 5.464 39.059 19.433 49.625 38.054 2.832.34 5.613.824 8.348 1.453-6.676-29.07-29.192-52.097-57.973-59.507" fill="#404a5f"/><path d="m320 260c-6.906 0-13.605.875-20 2.52v20c6.395-1.645 13.094-2.52 20-2.52s13.605.875 20 2.52v-20c-6.395-1.645-13.094-2.52-20-2.52" fill="#62a48d"/><path d="m250.375 320.574c-2.832.34-5.613.824-8.348 1.453-1.328 5.778-2.027 11.793-2.027 17.973 0 .84.012 1.68.039 2.512.66-.172 1.32-.332 1.988-.485 1.75-7.625 4.59-14.836 8.348-21.453" fill="#394051"/><path d="m389.625 320.574c3.758 6.617 6.598 13.828 8.348 21.453.668.153 1.328.313 1.988.485.027-.832.039-1.672.039-2.512 0-6.18-.699-12.195-2.027-17.973-2.735-.629-5.516-1.113-8.348-1.453" fill="#394051"/><path d="m340 420c0-44.184-35.816-80-80-80s-80 35.816-80 80 35.816 80 80 80 80-35.816 80-80" fill="#c84755"/><path d="m460 420c0-44.184-35.816-80-80-80s-80 35.816-80 80 35.816 80 80 80 80-35.816 80-80" fill="#c84755"/><path d="m320 400c-44.184 0-80 35.816-80 80s35.816 80 80 80 80-35.816 80-80-35.816-80-80-80" fill="#c84755"/><path d="m320 280c-44.184 0-80 35.816-80 80s35.816 80 80 80 80-35.816 80-80-35.816-80-80-80" fill="#c84755"/><path d="m279.102 428.77c9.05 12.843 23.992 21.23 40.898 21.23 16.902 0 31.848-8.391 40.898-21.23-11.968 7.132-25.953 11.23-40.898 11.23s-28.93-4.098-40.898-11.23" fill="#a43f4a"/><path d="m320 350c-27.613 0-50 22.387-50 50 0 10.711 3.367 20.633 9.102 28.77 11.968 7.132 25.953 11.23 40.898 11.23s28.93-4.098 40.898-11.23c5.735-8.137 9.102-18.059 9.102-28.77 0-27.613-22.387-50-50-50" fill="#a43f4a"/><path d="m370 420c0-27.613-22.387-50-50-50s-50 22.387-50 50 22.387 50 50 50 50-22.387 50-50" fill="#f3cc70"/></g></svg>