<svg width="78" height="80" viewBox="0 0 78 80" fill="none" xmlns="http://www.w3.org/2000/svg">
<path fill-rule="evenodd" clip-rule="evenodd" d="M44.7906 23.8463C52.0466 22.489 58.9017 14.3155 65.5475 17.5286C71.9326 20.6157 70.2983 30.4412 72.4248 37.207C74.252 43.0207 77.847 48.4259 77.1618 54.4814C76.4678 60.6149 73.111 66.234 68.6567 70.5072C64.4213 74.5703 58.7316 76.5627 52.9713 77.6882C47.5938 78.7388 42.3738 76.8503 36.8964 76.7123C29.033 76.5142 19.3439 82.2576 13.7766 76.7008C8.35776 71.2921 14.9085 61.84 14.3463 54.2043C13.8389 47.3137 7.68287 40.4754 10.6498 34.2355C13.6216 27.9855 21.8679 26.4757 28.4887 24.4609C33.7985 22.8451 39.335 24.8668 44.7906 23.8463Z" fill="#FFD1D7"/>
<path d="M19.6684 13.5461C20.2878 13.5461 20.8816 13.3 21.3196 12.8621C21.7575 12.4242 22.0035 11.8302 22.0035 11.2108V2.79809C22.0035 2.17876 21.7575 1.58479 21.3196 1.14685C20.8816 0.708914 20.2878 0.462891 19.6684 0.462891C19.0491 0.462891 18.455 0.708914 18.0171 1.14685C17.5792 1.58479 17.3331 2.17876 17.3331 2.79809V11.2108C17.3331 11.8302 17.5792 12.4242 18.0171 12.8621C18.455 13.3 19.0491 13.5461 19.6684 13.5461V13.5461ZM18.7403 2.79809C18.7403 2.55195 18.838 2.31589 19.0121 2.14184C19.1861 1.96779 19.4223 1.87001 19.6684 1.87001C19.9146 1.87001 20.1506 1.96779 20.3246 2.14184C20.4987 2.31589 20.5965 2.55195 20.5965 2.79809V11.2108C20.5966 11.4584 20.4992 11.696 20.3255 11.8724C20.1519 12.0489 19.9159 12.15 19.6684 12.1539C19.4209 12.15 19.1848 12.0489 19.0111 11.8724C18.8375 11.696 18.7403 11.4584 18.7403 11.2108V2.79809Z" fill="#665F5F"/>
<path d="M17.3333 35.7899C17.3333 36.0966 17.3937 36.4003 17.511 36.6836C17.6284 36.9669 17.8004 37.2243 18.0172 37.4412C18.2341 37.658 18.4915 37.83 18.7748 37.9474C19.0581 38.0648 19.3619 38.1252 19.6685 38.1252C19.9752 38.1252 20.2788 38.0648 20.5621 37.9474C20.8454 37.83 21.1029 37.658 21.3197 37.4412C21.5365 37.2243 21.7085 36.9669 21.8259 36.6836C21.9432 36.4003 22.0037 36.0966 22.0037 35.7899V27.3772C22.0037 27.0705 21.9432 26.7669 21.8259 26.4836C21.7085 26.2002 21.5365 25.9428 21.3197 25.726C21.1029 25.5091 20.8454 25.3371 20.5621 25.2198C20.2788 25.1024 19.9752 25.042 19.6685 25.042C19.3619 25.042 19.0581 25.1024 18.7748 25.2198C18.4915 25.3371 18.2341 25.5091 18.0172 25.726C17.8004 25.9428 17.6284 26.2002 17.511 26.4836C17.3937 26.7669 17.3333 27.0705 17.3333 27.3772V35.7899ZM18.7405 27.3772C18.7405 27.1311 18.8381 26.895 19.0122 26.7209C19.1862 26.5469 19.4224 26.4491 19.6685 26.4491C19.9147 26.4491 20.1507 26.5469 20.3247 26.7209C20.4988 26.895 20.5966 27.1311 20.5966 27.3772V35.7899C20.5967 36.0375 20.4993 36.2751 20.3256 36.4515C20.152 36.628 19.9161 36.7291 19.6685 36.733C19.5454 36.733 19.4234 36.7085 19.3098 36.661C19.1963 36.6134 19.0933 36.5437 19.0069 36.4559C18.9205 36.3681 18.8524 36.264 18.8066 36.1497C18.7609 36.0354 18.7385 35.9131 18.7405 35.7899V27.3772Z" fill="#665F5F"/>
<path d="M31.3294 5.29787C31.0229 5.2966 30.7191 5.35688 30.4362 5.47517C30.1534 5.59345 29.8973 5.76732 29.6829 5.98647L23.6951 11.9742C23.476 12.1886 23.3021 12.4448 23.1839 12.7276C23.0656 13.0105 23.0053 13.3142 23.0066 13.6208C23.0055 14.0826 23.1412 14.5344 23.3967 14.919C23.6523 15.3036 24.0163 15.6038 24.4425 15.7816C24.8687 15.9595 25.3379 16.007 25.7911 15.9181C26.2442 15.8293 26.6609 15.608 26.9883 15.2824L32.976 9.29469C33.3016 8.96724 33.5229 8.55058 33.6117 8.09742C33.7006 7.64425 33.6533 7.17493 33.4754 6.74875C33.2976 6.32257 32.9974 5.95868 32.6128 5.7031C32.2281 5.44752 31.7762 5.31172 31.3145 5.31286L31.3294 5.29787ZM24.7281 14.2794C24.638 14.1951 24.5662 14.0931 24.5172 13.9798C24.4683 13.8664 24.4432 13.7442 24.4436 13.6208C24.4479 13.3724 24.5502 13.1357 24.7281 12.9622L30.7158 6.97445C30.8893 6.79657 31.1259 6.69436 31.3744 6.69003C31.4978 6.68963 31.6199 6.71469 31.7333 6.76362C31.8466 6.81256 31.9486 6.88432 32.0329 6.97445C32.1236 7.05852 32.196 7.16042 32.2455 7.27376C32.2949 7.3871 32.3206 7.50943 32.3206 7.6331C32.3206 7.75676 32.2949 7.87908 32.2455 7.99242C32.196 8.10575 32.1236 8.20765 32.0329 8.29173L26.0452 14.2794C25.8633 14.4455 25.6237 14.5337 25.3775 14.5253C25.1314 14.5169 24.8983 14.4126 24.7281 14.2345V14.2794Z" fill="#665F5F"/>
<path d="M16.2854 25.0723C16.2884 24.7655 16.2289 24.4612 16.1105 24.1781C15.9921 23.8951 15.8172 23.639 15.5967 23.4257C15.381 23.2084 15.1246 23.036 14.842 22.9183C14.5594 22.8007 14.2562 22.7401 13.9501 22.7401C13.644 22.7401 13.341 22.8007 13.0584 22.9183C12.7758 23.036 12.5192 23.2084 12.3035 23.4257L6.3158 29.4134C6.09858 29.6306 5.92628 29.8885 5.80872 30.1723C5.69116 30.4561 5.63056 30.7603 5.63056 31.0675C5.63056 31.3747 5.69116 31.6789 5.80872 31.9627C5.92628 32.2465 6.09858 32.5044 6.3158 32.7216C6.53302 32.9388 6.79086 33.1111 7.07468 33.2287C7.35849 33.3462 7.66268 33.4067 7.96987 33.4067C8.27707 33.4067 8.58126 33.3462 8.86507 33.2287C9.14888 33.1111 9.40673 32.9388 9.62395 32.7216L15.6117 26.7339C15.8285 26.5155 15.9998 26.256 16.1154 25.9708C16.2311 25.6855 16.2889 25.3801 16.2854 25.0723V25.0723ZM14.6088 25.7309L8.62112 31.7187C8.43908 31.8849 8.20139 31.977 7.95489 31.977C7.70839 31.977 7.47088 31.8849 7.28884 31.7187C7.11811 31.5356 7.02192 31.2953 7.01931 31.045C7.02364 30.7966 7.12595 30.5599 7.30382 30.3864L13.2915 24.3987C13.4677 24.2268 13.704 24.1306 13.9501 24.1306C14.1962 24.1306 14.4327 24.2268 14.6088 24.3987C14.7807 24.5748 14.8769 24.8112 14.8769 25.0573C14.8769 25.3035 14.7807 25.5398 14.6088 25.716V25.7309Z" fill="#665F5F"/>
<path d="M25.4165 19.2944C25.4165 19.9137 25.6625 20.5077 26.1005 20.9457C26.5384 21.3836 27.1323 21.6296 27.7516 21.6296H36.2393C36.8586 21.6296 37.4525 21.3836 37.8904 20.9457C38.3284 20.5077 38.5746 19.9137 38.5746 19.2944C38.5746 18.6751 38.3284 18.0811 37.8904 17.6432C37.4525 17.2052 36.8586 16.9592 36.2393 16.9592H27.8265C27.5136 16.9492 27.202 17.0022 26.91 17.115C26.6179 17.2279 26.3516 17.3983 26.1268 17.6161C25.9019 17.834 25.7231 18.0948 25.6011 18.3831C25.4791 18.6714 25.4163 18.9813 25.4165 19.2944V19.2944ZM37.0924 19.2944C37.0925 19.542 36.9953 19.7796 36.8216 19.956C36.648 20.1325 36.4119 20.2336 36.1643 20.2375H27.7516C27.5239 20.2086 27.3145 20.0976 27.1627 19.9254C27.0109 19.7532 26.9271 19.5315 26.9271 19.3019C26.9271 19.0723 27.0109 18.8506 27.1627 18.6784C27.3145 18.5061 27.5239 18.3952 27.7516 18.3663H36.2393C36.4722 18.3852 36.6894 18.4912 36.8476 18.6633C37.0057 18.8353 37.0932 19.0607 37.0924 19.2944V19.2944Z" fill="#665F5F"/>
<path d="M3.17221 21.6294H11.5849C12.2043 21.6294 12.7982 21.3834 13.2361 20.9454C13.674 20.5075 13.92 19.9135 13.92 19.2942C13.92 18.6749 13.674 18.0809 13.2361 17.6429C12.7982 17.205 12.2043 16.959 11.5849 16.959H3.17221C2.55287 16.959 1.95881 17.205 1.52087 17.6429C1.08294 18.0809 0.836914 18.6749 0.836914 19.2942C0.836914 19.9135 1.08294 20.5075 1.52087 20.9454C1.95881 21.3834 2.55287 21.6294 3.17221 21.6294ZM3.17221 18.3661H11.5849C11.8127 18.395 12.0221 18.5059 12.1739 18.6782C12.3257 18.8504 12.4094 19.0721 12.4094 19.3017C12.4094 19.5313 12.3257 19.7529 12.1739 19.9252C12.0221 20.0974 11.8127 20.2084 11.5849 20.2373H3.17221C3.03941 20.2541 2.90455 20.2425 2.7766 20.2031C2.64865 20.1638 2.53057 20.0977 2.43014 20.0092C2.32972 19.9207 2.24915 19.8118 2.19405 19.6898C2.13896 19.5679 2.11055 19.4355 2.11055 19.3017C2.11055 19.1678 2.13896 19.0355 2.19405 18.9135C2.24915 18.7915 2.32972 18.6826 2.43014 18.5941C2.53057 18.5056 2.64865 18.4395 2.7766 18.4002C2.90455 18.3609 3.03941 18.3493 3.17221 18.3661V18.3661Z" fill="#665F5F"/>
<path d="M12.2884 15.2376C12.503 15.4656 12.7612 15.6481 13.0477 15.7743C13.3342 15.9004 13.6432 15.9677 13.9562 15.9721C14.2692 15.9765 14.5799 15.9179 14.8699 15.7998C15.1598 15.6817 15.423 15.5065 15.6439 15.2846C15.8648 15.0627 16.0388 14.7987 16.1555 14.5083C16.2723 14.2178 16.3295 13.9069 16.3237 13.5939C16.3179 13.2809 16.2492 12.9722 16.1217 12.6863C15.9943 12.4003 15.8105 12.143 15.5816 11.9294L9.59388 5.94172C9.37693 5.72402 9.11921 5.55127 8.83537 5.43341C8.55152 5.31555 8.24715 5.25488 7.9398 5.25488C7.63246 5.25488 7.32809 5.31555 7.04424 5.43341C6.76039 5.55127 6.50268 5.72402 6.28573 5.94172C5.85421 6.38117 5.61255 6.97246 5.61255 7.58835C5.61255 8.20424 5.85421 8.79551 6.28573 9.23496L12.2884 15.2376ZM7.3335 6.9746C7.41758 6.88392 7.51948 6.81157 7.63282 6.76209C7.74615 6.71261 7.86858 6.68708 7.99225 6.68708C8.11591 6.68708 8.23816 6.71261 8.3515 6.76209C8.46483 6.81157 8.56673 6.88392 8.65081 6.9746L14.6385 12.9623C14.7246 13.049 14.7927 13.1518 14.839 13.2648C14.8852 13.3778 14.9087 13.4989 14.908 13.621C14.9113 13.7434 14.889 13.8652 14.8426 13.9786C14.7962 14.092 14.7267 14.1945 14.6385 14.2796C14.4624 14.4515 14.2261 14.5477 13.98 14.5477C13.7338 14.5477 13.4974 14.4515 13.3212 14.2796L7.3335 8.29189C7.16374 8.11424 7.06759 7.87895 7.06416 7.63326C7.06464 7.50996 7.09001 7.38803 7.1389 7.27483C7.18778 7.16163 7.25907 7.0595 7.34849 6.9746H7.3335Z" fill="#665F5F"/>
<path d="M53.1249 35.8653C53.1098 35.7018 53.05 35.5456 52.9524 35.4136C52.8547 35.2817 52.7229 35.179 52.571 35.1168L25.2071 23.2761C25.0559 23.2076 24.8891 23.1809 24.724 23.1988C24.5589 23.2167 24.4017 23.2786 24.2686 23.3779C24.1356 23.4773 24.0317 23.6106 23.9677 23.7638C23.9037 23.917 23.882 24.0846 23.9048 24.2491L27.6621 53.8284C27.6803 53.9909 27.7412 54.1457 27.8385 54.2771C27.9357 54.4085 28.0659 54.512 28.216 54.5769C28.3683 54.6365 28.5331 54.6568 28.6953 54.6359C28.8575 54.615 29.0119 54.5535 29.1441 54.4571L35.9999 49.3077L43.1703 58.8581C43.2553 58.9765 43.3679 59.0725 43.4983 59.1377C43.6287 59.2029 43.773 59.2354 43.9187 59.2323C44.122 59.2306 44.3202 59.168 44.4876 59.0527L52.9003 52.7207C52.9976 52.647 53.0793 52.5549 53.141 52.4496C53.2026 52.3443 53.243 52.2278 53.2596 52.1069C53.279 51.986 53.2731 51.8623 53.2422 51.7437C53.2113 51.6252 53.156 51.5144 53.0799 51.4183L45.9096 41.8679L52.7656 36.7185C52.8961 36.6212 52.9981 36.4908 53.0613 36.3408C53.1245 36.1908 53.1465 36.0266 53.1249 35.8653V35.8653ZM44.0384 40.9249C43.9411 40.9985 43.8594 41.0907 43.7978 41.196C43.7361 41.3013 43.6958 41.4177 43.6792 41.5386C43.6585 41.6619 43.6638 41.7882 43.6947 41.9094C43.7256 42.0305 43.7815 42.1439 43.8588 42.2422L51.0291 51.7926L44.1133 56.9869L36.928 47.4365C36.8405 47.3207 36.7275 47.2267 36.5976 47.1618C36.4678 47.0969 36.3247 47.0629 36.1796 47.0623C35.9779 47.0609 35.7821 47.1297 35.6257 47.2569L29.3087 52.0021L25.9706 25.6412L50.3556 36.1946L44.0384 40.9249Z" fill="#665F5F"/>
</svg>
