<svg width="73" height="81" viewBox="0 0 73 81" fill="none" xmlns="http://www.w3.org/2000/svg">
<path fill-rule="evenodd" clip-rule="evenodd" d="M42.8224 12.3601C52.8328 11.4025 63.1192 16.7236 69.0151 24.9031C74.3494 32.3034 72.3923 42.2055 70.8215 51.2036C69.5803 58.3133 66.5102 64.7915 61.202 69.6589C56.152 74.2894 49.5401 75.5907 42.8224 76.8772C33.6039 78.6426 23.8162 83.2245 15.7799 78.3576C6.55307 72.7696 -0.759324 61.9571 0.430141 51.2036C1.57703 40.835 13.512 36.5106 21.1866 29.4786C28.2373 23.0181 33.3204 13.2691 42.8224 12.3601Z" fill="#FFD1D7"/>
<path d="M40.609 27.1514L25.9503 41.6704L19.0358 34.8233" stroke="#665F5F" stroke-width="2" stroke-linecap="round" stroke-linejoin="round"/>
<path d="M30.0535 59.5856C44.2307 59.5856 55.7235 48.2022 55.7235 34.16C55.7235 20.1178 44.2307 8.73438 30.0535 8.73438C15.8763 8.73438 4.38342 20.1178 4.38342 34.16C4.38342 48.2022 15.8763 59.5856 30.0535 59.5856Z" stroke="#665F5F" stroke-width="2" stroke-linecap="round" stroke-linejoin="round"/>
<path d="M30.2545 53.6933C41.1829 53.6933 50.0421 44.9184 50.0421 34.0941C50.0421 23.2698 41.1829 14.4949 30.2545 14.4949C19.3261 14.4949 10.4669 23.2698 10.4669 34.0941C10.4669 44.9184 19.3261 53.6933 30.2545 53.6933Z" stroke="#665F5F" stroke-width="2" stroke-linecap="round" stroke-linejoin="round"/>
<path d="M54.6962 17.3858L58.6996 12.9172L45.4989 1.87891L41.6142 6.44787L54.6962 17.3858ZM5.23353 17.3858L1.2301 12.9172L14.4292 1.87891L18.3155 6.44787L5.23353 17.3858Z" stroke="#665F5F" stroke-width="2" stroke-linecap="round" stroke-linejoin="round"/>
</svg>
