<svg width="77" height="78" viewBox="0 0 77 78" fill="none" xmlns="http://www.w3.org/2000/svg">
<path fill-rule="evenodd" clip-rule="evenodd" d="M43.9572 19.9375C53.8638 18.7976 61.4474 3.5194 70.4334 8.07246C78.8729 12.3486 76.4498 26.1905 75.7698 36.0564C75.1514 45.0287 72.1673 53.2258 66.8378 60.24C60.6873 68.3346 53.7757 78.22 43.9572 77.9249C34.2145 77.6321 29.0932 66.3326 22.3419 58.9026C15.825 51.7307 5.83894 46 5.91301 36.0564C5.98691 26.1349 13.9664 17.2588 22.6796 13.5671C29.7926 10.5534 36.3389 20.814 43.9572 19.9375Z" fill="#FFD1D7"/>
<path d="M33.3555 1.00284H30.3455C22.2775 1.40399 14.6724 4.89143 9.10404 10.7435C3.53567 16.5957 0.430176 24.3645 0.430176 32.4425C0.430176 40.5205 3.53567 48.2893 9.10404 54.1414C14.6724 59.9935 22.2775 63.481 30.3455 63.8821H33.3555C41.4622 63.5332 49.121 60.0672 54.7339 54.2075C60.3468 48.3478 63.4801 40.547 63.4801 32.4328C63.4801 24.3186 60.3468 16.5177 54.7339 10.658C49.121 4.79832 41.4622 1.33239 33.3555 0.983398V1.00284ZM54.1146 13.6059C51.8682 15.2971 49.4305 16.718 46.8518 17.8392C44.6426 12.4678 41.2352 7.67219 36.8898 3.81858C43.6064 4.94613 49.7078 8.41301 54.1146 13.6059ZM33.2389 3.89628C38.2679 7.73709 42.188 12.8432 44.5992 18.6937C40.9493 19.9944 37.113 20.6961 33.2389 20.7716V3.89628ZM33.2389 23.2183C37.4002 23.1431 41.5206 22.3821 45.4342 20.9658C46.6233 24.5893 47.2392 28.3764 47.2596 32.1901H33.2389V23.2183ZM33.2389 34.6368H47.1819C46.9577 38.3685 46.1586 42.0432 44.8128 45.531C41.0507 44.2935 37.1214 43.6386 33.1613 43.5891L33.2389 34.6368ZM26.7335 3.83802C22.5404 7.55725 19.2243 12.1601 17.0239 17.3149C14.6245 16.1684 12.3583 14.7618 10.2661 13.1204C14.5793 8.30318 20.3727 5.05803 26.7335 3.89628V3.83802ZM8.77075 15.0041C11.0475 16.8182 13.5311 18.3566 16.1695 19.587C14.7617 23.6473 14.0334 27.912 14.014 32.2094H2.98386C3.00345 26.0176 5.03435 19.9998 8.77075 15.0623V15.0041ZM9.68345 50.9296C5.83837 46.3253 3.5238 40.6371 3.06156 34.6563H14.0916C14.3262 38.8343 15.2378 42.9464 16.7909 46.8321C14.2762 47.9518 11.8926 49.3455 9.68345 50.9878V50.9296ZM11.3341 52.7355C13.3425 51.2855 15.4968 50.0489 17.7618 49.0459C19.9337 53.5694 22.9834 57.6159 26.7335 60.9499C20.8884 59.8663 15.5147 57.0202 11.3341 52.7938V52.7355ZM30.7533 61.1441C26.177 57.7261 22.4822 53.2657 19.9757 48.1332C23.438 46.8717 27.0721 46.1449 30.7533 45.9776V61.1441ZM30.7533 43.5502C26.7329 43.7219 22.7633 44.5145 18.9853 45.9C17.5472 42.3056 16.7012 38.5019 16.4802 34.6368H30.7533V43.5502ZM30.7533 32.1901H16.4025C16.4096 28.2263 17.0656 24.2904 18.3445 20.5385C22.2985 22.0995 26.4865 22.9857 30.7339 23.1601L30.7533 32.1901ZM30.7533 20.7521C26.8052 20.5691 22.9145 19.7358 19.2377 18.2859C21.7085 12.4695 25.6831 7.41578 30.7533 3.64382V20.7521ZM33.1807 60.8916V46.0165C36.7915 46.0878 40.3715 46.6965 43.803 47.8225C41.3772 52.9771 37.7554 57.4778 33.2389 60.9499L33.1807 60.8916ZM36.8509 61.0275C40.7621 57.5674 43.9157 53.3361 46.1139 48.5992C48.5562 49.5834 50.8762 50.8477 53.0271 52.3666C48.7324 56.9313 43.08 59.9891 36.9092 61.0858L36.8509 61.0275ZM54.6389 50.5218C52.2798 48.8434 49.7313 47.4486 47.046 46.366C48.4927 42.6056 49.338 38.6409 49.5511 34.6175H60.9307C60.5196 40.4473 58.3456 46.0144 54.6972 50.58L54.6389 50.5218ZM61.0084 32.1901H49.687C49.686 28.0735 49.0305 23.9832 47.7451 20.0724C50.5582 18.8598 53.2124 17.3077 55.6487 15.4507C59.1656 20.3388 61.0605 26.2071 61.0667 32.2289L61.0084 32.1901Z" fill="#665F5F"/>
</svg>
