<svg width="51" height="36" viewBox="0 0 51 36" fill="none" xmlns="http://www.w3.org/2000/svg">
<g id="Group 455">
<path id="Vector" fill-rule="evenodd" clip-rule="evenodd" d="M32.6417 4.84654C36.6893 4.08939 40.5132 -0.470006 44.2205 1.32239C47.7822 3.04443 46.8706 8.52534 48.0568 12.2995C49.0761 15.5426 51.0815 18.5577 50.6992 21.9356C50.3121 25.357 48.4396 28.4915 45.9548 30.8752C43.5922 33.1418 40.4184 34.2532 37.2051 34.881C34.2054 35.467 31.2935 34.4136 28.2381 34.3366C23.8517 34.2261 18.4468 37.43 15.3413 34.3302C12.3185 31.3131 15.9727 26.0404 15.6591 21.7811C15.376 17.9373 11.942 14.1227 13.5971 10.6419C15.2548 7.15548 19.8548 6.31328 23.5481 5.18939C26.51 4.28805 29.5984 5.41582 32.6417 4.84654Z" fill="#FFD1D7"/>
<g id="Group">
<path id="Vector_2" d="M12.3554 29.0402C13.2321 29.0402 14.073 28.692 14.6929 28.072C15.3129 27.4521 15.6611 26.6112 15.6611 25.7345C15.6611 24.8577 15.3129 24.0169 14.6929 23.3969C14.073 22.777 13.2321 22.4287 12.3554 22.4287C11.4786 22.4287 10.6378 22.777 10.0178 23.3969C9.3979 24.0169 9.04961 24.8577 9.04961 25.7345C9.04961 26.6112 9.3979 27.4521 10.0178 28.072C10.6378 28.692 11.4786 29.0402 12.3554 29.0402V29.0402ZM28.8842 29.0402C29.7609 29.0402 30.6018 28.692 31.2217 28.072C31.8417 27.4521 32.19 26.6112 32.19 25.7345C32.19 24.8577 31.8417 24.0169 31.2217 23.3969C30.6018 22.777 29.7609 22.4287 28.8842 22.4287C28.0075 22.4287 27.1666 22.777 26.5467 23.3969C25.9267 24.0169 25.5784 24.8577 25.5784 25.7345C25.5784 26.6112 25.9267 27.4521 26.5467 28.072C27.1666 28.692 28.0075 29.0402 28.8842 29.0402V29.0402Z" stroke="#665F5F" stroke-miterlimit="1.5" stroke-linecap="round" stroke-linejoin="round"/>
<path id="Vector_3" d="M15.7437 25.7344H23.9254V8.54446C23.9254 8.28144 23.821 8.02919 23.635 7.84321C23.449 7.65722 23.1967 7.55273 22.9337 7.55273H0.785095M8.471 25.7344H5.08259C4.95235 25.7344 4.82339 25.7088 4.70307 25.6589C4.58275 25.6091 4.47342 25.5361 4.38133 25.444C4.28924 25.3519 4.21619 25.2425 4.16635 25.1222C4.11651 25.0019 4.09086 24.8729 4.09086 24.7427V16.6436" stroke="#665F5F" stroke-linecap="round"/>
<path id="Vector_4" d="M2.43802 12.5117H9.04955" stroke="#665F5F" stroke-linecap="round" stroke-linejoin="round"/>
<path id="Vector_5" d="M23.9255 12.5117H33.1982C33.3899 12.5118 33.5775 12.5674 33.7382 12.6718C33.899 12.7762 34.026 12.925 34.104 13.1001L37.0626 19.758C37.119 19.8844 37.1483 20.0212 37.1486 20.1596V24.743C37.1486 24.8733 37.1229 25.0022 37.0731 25.1226C37.0232 25.2429 36.9502 25.3522 36.8581 25.4443C36.766 25.5364 36.6567 25.6094 36.5364 25.6593C36.416 25.7091 36.2871 25.7348 36.1568 25.7348H33.0164M23.9255 25.7348H25.5784" stroke="#665F5F" stroke-linecap="round"/>
</g>
</g>
</svg>
