<svg width="1031" height="1146" viewBox="0 0 1031 1146" fill="none" xmlns="http://www.w3.org/2000/svg">
<path d="M132.434 927.238L118.724 903.636C273.367 882.289 392.431 903.071 432.633 916.131L366.92 948.063C227.363 917.705 152.447 921.53 132.434 927.238Z" fill="url(#paint0_linear_1_2)"/>
<path d="M266.912 1013.25C244.798 996.028 187.338 975.529 161.372 967.432C165.142 973.336 186.605 996.95 196.866 1008.02L232.988 1042.76L266.912 1013.25Z" fill="url(#paint1_linear_1_2)"/>
<path d="M131.164 926.083L145.476 947.961L182.731 949.597L219.796 955.132L283.246 969.276L313.086 981.575L367.741 949.597L352.35 945.293L309.945 936.376L257.489 929.611L211.629 926.083L160.116 924.076L131.164 926.083Z" fill="url(#paint2_linear_1_2)"/>
<path d="M498.345 888.868C315.772 844.954 162.324 866.315 108.421 882.485L116.898 902.91C300.515 885.549 404.234 904.612 433.141 916.314L498.345 888.868Z" fill="url(#paint3_linear_1_2)"/>
<path d="M355.391 1111.78L322.533 1097.03L368.562 1052.35L421.783 1005.46L499.617 955.314L590.091 911.683L663.269 884.983L723.53 869.83L784.211 858.833L844.893 854.225H893.959L957.416 858.833L952.09 873.692C719.331 859.493 512.907 1041.59 430.691 1134.02L408.238 1128.66L355.391 1111.78Z" fill="url(#paint4_linear_1_2)"/>
<path d="M957.906 860.421C635.172 823.289 400.451 1003.53 323.432 1098.29C284.531 1082.18 253.462 1054.78 235.152 1041.57C504.972 816.533 808.116 814.465 963.793 845.62L957.906 860.421Z" fill="url(#paint5_linear_1_2)"/>
<path d="M725.29 545.464L713.17 507.375L725.29 482.921L740.222 495.04L749.528 521.659L754.072 554.986L725.29 545.464Z" fill="url(#paint6_linear_1_2)"/>
<path d="M566.424 1141.52C513.865 1147.78 455.801 1138.9 433.339 1133.68C623.47 908.764 857.243 866.267 950.364 873.134L947.103 882.933C784.673 895.404 625.638 1060.52 566.424 1141.52Z" fill="url(#paint7_linear_1_2)"/>
<path d="M713.153 1104.28C742.823 1048.95 830.464 931.221 935.925 902.986C910.01 952.618 827.627 1062.37 713.153 1104.28Z" fill="url(#paint8_linear_1_2)"/>
<path d="M162.439 968.537L144.723 946.378C238.419 952.929 296.289 971.588 313.512 980.098L268.731 1012.37C213.617 982.699 174.905 970.785 162.439 968.537Z" fill="url(#paint9_linear_1_2)"/>
<path d="M945.526 883.956C795.256 887.807 629.977 1057.32 566.12 1141.6C603.358 1143.69 680.156 1119.24 713.901 1106.75L717.461 1096.88L735.855 1065.51L775.017 1017.01L797.862 990.873L837.024 956.022L884.493 924.947L928.699 903.746L936.413 901.713L945.526 883.956Z" fill="url(#paint10_linear_1_2)"/>
<path d="M148.726 452.531L138.581 444.606L176.028 395.426L194.77 408.205L209.722 421.455L231.465 431.704L260.271 442.091L285.061 451.647L303.757 455.663L334.502 457.186L314.975 465.357V468.681L341.149 483.222L363.03 496.42L374.13 498.964L391.936 495.495L402.446 488.904L413.558 474.914L424.426 472.37V476.417L418.067 487.864L402.446 502.664L391.936 507.057L387.08 511.335L389.161 513.764L405.58 520.47L429.153 525.85L452.997 528.746L472.839 536.336H488.224L506.578 531.895L519.899 523.237L543.998 517.464L562.969 515.092L583.56 512.721L632.126 487.377L636.09 496.929L594.195 518.379L593.022 521.564L615.813 542.009L635.105 539.83L645.475 534.97L646.836 523.575L653.519 511.173L663.909 503.13L676.143 499.443L690.387 500.448L699.939 504.135L711.838 516.369L719.211 533.629L717.703 552.471L705.134 569.827L684.187 576.195L667.596 572.208L656.368 561.113L649.832 548.933H646.836L635.105 552.471L630.264 555.287L628.96 559.547L632.126 566.622L635.105 572.208H632.126L621.512 564.164L612.796 555.287L597.581 540.872L583.56 530.704L566.555 528.019L534.037 533.389L484.292 540.872L449.588 543.136L426.848 543.852L425.665 545.202L434.108 558.483L449.588 582.242L456.156 600.321H461.966L474.621 593.089C483.505 569.743 498.037 560.29 504.192 558.483L505.483 564.164L502.255 582.242L491.645 601.992L499.271 607.428L514.825 620.188L521.318 629.777L512.937 630.306L497.663 626.155L488.308 619.74L479.933 612.879L471.736 611.008L462.722 614.39L460.142 618.612V629.869L464.832 637.609L474.683 649.57L477.263 657.779L472.572 656.606L453.34 649.57L451.933 644.879L449.588 623.771L439.737 594.689L427.541 570.532L415.815 555.287L402.446 540.981L382.513 524.58L357.479 508.442L330.583 494.787L289.741 479.317L264.221 470.501L242.586 465.733L221.496 464.928L194.77 463.962L179.959 462.191L170.299 459.132L148.726 452.531Z" fill="url(#paint11_linear_1_2)"/>
<path d="M524.015 555.313H511.708L510.945 567.73L509.638 580.256L503.212 598.336L517.044 611.95L527.174 627.417H530.55L539.699 622.842L552.551 612.713L558.542 601.059L559.849 587.989L555.274 578.186L548.957 572.74L540.897 570.671H532.728H524.015L519.658 568.384L523.035 565.116L538.828 558.254L524.015 555.313Z" fill="url(#paint12_linear_1_2)"/>
<path d="M461.83 463.28L435.059 467.841V474.187V488.266L441.801 503.932L456.674 517.813L473.331 526.538H485.626L500.697 524.159L513.587 515.83L524.493 501.751L526.476 496.198V489.258L508.034 474.187L490.584 466.651L461.83 463.28Z" fill="url(#paint13_linear_1_2)"/>
<path d="M446.504 430.937L443.017 453.874L445.109 455.656L466.651 453.874L469.518 451.859L466.186 441.94L458.902 433.727L446.504 430.937Z" fill="url(#paint14_linear_1_2)"/>
<path d="M420.336 388.482L406.625 373.311L394.663 377.104L380.952 386.731L371.033 404.527V425.24L379.493 445.078L394.663 457.331L410.125 463.458H431.13L433.464 452.08L436.09 429.325L431.13 409.195L420.336 388.482Z" fill="url(#paint15_linear_1_2)"/>
<path d="M703.018 494.969C681.343 481.316 659.569 492.836 651.392 500.302L641.365 486.222L640.298 473.636L641.365 464.249L646.911 453.156L656.085 442.916L666.538 436.303L678.485 435.023L690.004 437.583L701.311 445.903L708.778 458.489L710.271 475.769L703.018 494.969Z" fill="url(#paint16_linear_1_2)"/>
<path d="M727.124 555.982C718.079 580.387 691.071 586.915 678.698 587.128L683.391 603.555L697.471 617.208L714.537 623.395L731.817 620.621L743.551 613.155L749.097 600.995L750.804 587.128L746.964 574.328L737.791 562.595L727.124 555.982Z" fill="url(#paint17_linear_1_2)"/>
<path d="M718.804 486.222L711.978 499.662L715.391 505.849L718.804 499.662L722.217 493.049L724.137 490.062L733.097 493.049V499.662L722.217 510.542V513.955L724.137 517.155L738.431 510.542H742.697L746.324 517.155L744.191 522.062L728.404 524.622L725.844 526.329L727.337 531.662L730.751 533.155H740.564L749.31 535.929V541.049L747.604 546.808H740.564L733.097 542.328H728.404V546.808L740.564 552.995L749.31 562.168L757.844 574.542L766.377 562.168L768.937 549.795V537.635L764.244 526.329L751.657 511.822L753.15 502.435V493.049L749.31 482.809L744.191 474.062L735.017 467.022L725.844 464.676H719.871L718.804 486.222Z" fill="url(#paint18_linear_1_2)"/>
<path d="M507.592 469.387L427.255 387.845L418.017 360.932L439.306 351.292L500.764 355.309L541.735 396.682L552.982 464.968L507.592 469.387Z" fill="url(#paint19_linear_1_2)"/>
<path d="M429.248 386.443L438.23 394.911L439.317 376.431L435.727 366.991L437.163 360.418L445.061 357.439L450.025 363.86L448.472 376.431L450.025 402.64L456.163 380.743V365.444L458.564 358.417L467.397 357.439L472.007 362.331L467.397 373.453L460.119 402.64V409.411L472.007 386.644L478.203 370.433L479.428 361.643L485.336 360.418L491.676 362.796L493.478 369.208L475.322 398.748L471.647 408.762L487.243 389.34L495.36 376.431L502.085 368.778L509.196 370.943L512.289 378.823L505.051 385.13L485.896 407.155L483.13 413.566L506.395 396.298L514.978 384.407L522.629 385.13L527.076 390.921L525.732 396.298L516.736 400.33L485.896 424.564L517.864 410.839L523.889 403.977L533.429 402.303L537.112 411.676L534.434 417.032L524.894 418.036L486.9 436.782L511.002 431.593L524.894 427.074L534.434 424.564L540.292 428.246L539.12 436.782L533.429 439.46H517.864L500.29 443.142L494.265 446.824H519.203L534.434 444.648L539.12 449.502L537.112 458.54L530.919 459.879L519.203 456.197H509.495H502.466L503.47 459.879L521.713 471.595L536.107 484.315L556.694 499.713L573.096 501.052L591.842 495.696L608.914 481.637L617.45 465.737L619.793 444.648L616.111 428.246L611.257 418.036L597.7 400.797L593.683 393.935L596.026 389.248L601.382 376.528L603.391 358.954L601.382 344.895L591.34 325.982L578.431 311.312L563.983 301.863L542.758 295.171H524.881L500.075 305.222L494.558 299.063L479.93 289.183L462.48 281.613L444.517 279.432L427.965 282.768L408.718 292.648L395.759 312.023L392.038 331.269L397.17 345.897L412.182 363.86L429.248 386.443Z" fill="url(#paint20_linear_1_2)"/>
<path d="M648.279 519.434L645.951 534.234L651.106 550.862L659.254 565.162L671.06 574.141L686.357 575.97L701.655 571.647L713.627 560.007L718.283 545.707V532.737L713.627 519.434L704.482 508.793L696.334 502.807L686.357 500.645H672.722L660.418 505.8L648.279 519.434Z" fill="url(#paint21_linear_1_2)"/>
<path d="M699.786 422.077L696.903 401.179V398.056L714.198 428.323L740.933 406.259L738.96 392.588L734.591 376.803L721.202 371.12L708.658 357.306L701.611 343.823L699.779 323.606L703.302 309.715L709.927 303.514V310.748L712.041 312.252L724.303 300.272L735.578 295.058H747.135L758.974 305.487L765.316 331.561L758.974 355.662L746.146 372.424L752.505 390.601H754.928L787.473 357.306L790.858 323.606L788.923 310.748L790.858 308.021L802.03 336.347L806.253 337.666L852.792 278.558L797.915 365.412L804.65 371.12L810.13 369.293L836.273 357.306V359.247L822.574 377.627L819.72 381.722L828.777 395.094V398.056L805.957 385.566L792.746 381.722H783.618L766.804 398.056L761.519 407.425L768.485 422.077L758.877 423.999H746.146L735.336 428.323L714.198 445.137L701.707 431.205L699.786 422.077Z" fill="url(#paint22_linear_1_2)"/>
<path d="M760.813 351.368L746.022 372.452L734.222 377.33L727.456 374.026L713.767 364.742L705.9 352.942L699.135 335.949L700.551 320.844L704.327 308.1L709.047 304.953L711.407 313.135L715.184 309.988L722.107 301.491L731.075 295.984L744.292 294.096L756.564 301.491L762.543 318.484L764.746 335.949L760.813 351.368Z" fill="url(#paint23_linear_1_2)"/>
<path d="M838.201 401.806L829.836 382.484L836.08 372.823L843.031 357.388H850.572L856.58 360.452L848.686 364.34V366.696L865.417 374.708L867.184 380.127L863.06 395.09L847.508 402.984L838.201 401.806Z" fill="url(#paint24_linear_1_2)"/>
<path d="M47.0034 734.611C49.17 735.045 51.25 735.305 53.2434 735.391C55.2367 735.391 57.0134 735.305 58.5734 735.131C60.22 734.871 61.8234 734.525 63.3834 734.091C64.9434 733.658 66.2434 733.181 67.2834 732.661C68.41 732.141 69.4934 731.578 70.5334 730.971C71.5734 730.278 72.3967 729.671 73.0034 729.151C73.6967 728.631 74.3467 728.068 74.9534 727.461C75.56 726.855 75.95 726.465 76.1234 726.291C76.3834 726.031 76.6 725.771 76.7734 725.511L79.7634 725.641C78.2034 727.288 76.8167 728.718 75.6034 729.931C74.39 731.058 72.31 732.445 69.3634 734.091C66.5034 735.738 63.5567 736.821 60.5234 737.341C53.59 738.381 46.83 737.341 40.2434 734.221C33.7434 731.101 28.24 726.335 23.7334 719.921C19.2267 713.421 16.3234 706.055 15.0234 697.821C13.7234 689.588 14.2434 681.745 16.5834 674.291C18.9234 666.751 22.6934 660.511 27.8934 655.571C33.18 650.545 39.29 647.511 46.2234 646.471C56.19 644.911 65.4634 647.511 74.0434 654.271C74.65 654.791 75.2134 655.268 75.7334 655.701L80.5434 658.821L76.3834 670.911C76.99 669.091 77.0767 666.925 76.6434 664.411C76.21 661.898 75.4734 660.035 74.4334 658.821C74.3467 658.735 74.13 658.561 73.7834 658.301C73.5234 657.955 73.1767 657.608 72.7434 657.261C72.3967 656.915 72.18 656.655 72.0934 656.481C68.4534 652.928 64.2934 650.805 59.6134 650.111C52.3334 648.985 45.4434 651.411 38.9434 657.391C32.53 663.371 28.0234 671.388 25.4234 681.441C25.1634 682.481 24.9467 683.521 24.7734 684.561C24.6 685.515 24.4267 686.511 24.2534 687.551C23.1267 695.091 23.3867 702.328 25.0334 709.261C26.68 716.108 29.4534 721.785 33.3534 726.291C37.2534 730.798 41.8034 733.571 47.0034 734.611ZM147.812 731.881C147.899 733.268 148.029 734.395 148.202 735.261C148.462 736.128 148.852 736.735 149.372 737.081C149.892 737.341 150.326 737.515 150.672 737.601C151.106 737.688 151.712 737.731 152.492 737.731H133.902C134.682 737.731 135.246 737.688 135.592 737.601C136.026 737.515 136.502 737.298 137.022 736.951C137.542 736.605 137.932 735.998 138.192 735.131C138.452 734.265 138.582 733.138 138.582 731.751V687.941H101.402V731.881C101.402 732.921 101.489 733.831 101.662 734.611C101.836 735.391 102.009 735.998 102.182 736.431C102.442 736.778 102.789 737.081 103.222 737.341C103.656 737.515 104.046 737.645 104.392 737.731C104.739 737.731 105.172 737.731 105.692 737.731H87.3623C88.1423 737.731 88.7056 737.688 89.0523 737.601C89.4856 737.515 89.9623 737.298 90.4823 736.951C91.0023 736.605 91.3923 735.998 91.6523 735.131C91.9123 734.265 92.0423 733.138 92.0423 731.751V652.711C92.0423 651.238 91.9123 650.068 91.6523 649.201C91.3923 648.335 91.0023 647.728 90.4823 647.381C89.9623 647.035 89.4856 646.861 89.0523 646.861C88.7056 646.775 88.1423 646.731 87.3623 646.731H92.0423H101.402H105.952C105.346 646.731 104.869 646.731 104.522 646.731C104.262 646.731 103.872 646.861 103.352 647.121C102.919 647.295 102.572 647.598 102.312 648.031C102.052 648.378 101.836 648.941 101.662 649.721C101.489 650.501 101.402 651.455 101.402 652.581V684.821H138.582V652.711C138.582 651.238 138.452 650.068 138.192 649.201C137.932 648.335 137.542 647.728 137.022 647.381C136.502 647.035 136.026 646.861 135.592 646.861C135.246 646.775 134.682 646.731 133.902 646.731H138.582H147.812H152.492C151.712 646.731 151.106 646.775 150.672 646.861C150.326 646.861 149.892 647.035 149.372 647.381C148.852 647.728 148.462 648.335 148.202 649.201C148.029 650.068 147.899 651.195 147.812 652.581V731.881ZM207.411 734.611C208.971 734.611 210.748 733.571 212.741 731.491C214.821 729.411 216.121 727.331 216.641 725.251L213.521 737.731H160.741C161.521 737.731 162.085 737.688 162.431 737.601C162.865 737.515 163.341 737.298 163.861 736.951C164.381 736.605 164.771 735.998 165.031 735.131C165.291 734.265 165.421 733.138 165.421 731.751V652.711C165.421 651.238 165.291 650.068 165.031 649.201C164.771 648.335 164.381 647.728 163.861 647.381C163.341 647.035 162.865 646.861 162.431 646.861C162.085 646.775 161.521 646.731 160.741 646.731H179.331C179.331 646.731 179.245 646.731 179.071 646.731C178.985 646.731 178.941 646.731 178.941 646.731H210.531L213.521 659.081C213.175 657.781 212.438 656.395 211.311 654.921C210.271 653.448 209.058 652.235 207.671 651.281C206.371 650.328 205.245 649.851 204.291 649.851H174.911C174.825 650.545 174.781 651.455 174.781 652.581V684.821H199.871C201.345 684.821 202.471 684.735 203.251 684.561C204.118 684.301 204.725 683.911 205.071 683.391C205.418 682.785 205.635 682.308 205.721 681.961C205.808 681.528 205.851 680.921 205.851 680.141V692.621C205.851 691.841 205.808 691.278 205.721 690.931C205.635 690.498 205.418 690.021 205.071 689.501C204.725 688.895 204.118 688.505 203.251 688.331C202.385 688.071 201.258 687.941 199.871 687.941H174.781V731.881C174.781 733.008 174.825 733.918 174.911 734.611H207.411ZM284.81 735.001C284.897 735.001 285.027 735.175 285.2 735.521C285.46 735.781 285.633 735.955 285.72 736.041C285.807 736.128 285.937 736.301 286.11 736.561C286.37 736.821 286.587 736.995 286.76 737.081C286.933 737.168 287.15 737.298 287.41 737.471C287.757 737.558 288.06 737.645 288.32 737.731C288.667 737.731 289.057 737.731 289.49 737.731H275.45H275.32H270.77C272.07 737.731 272.98 737.558 273.5 737.211C274.28 736.778 274.41 736.215 273.89 735.521L241.39 687.941H238.14V731.751C238.14 733.225 238.27 734.395 238.53 735.261C238.79 736.128 239.18 736.735 239.7 737.081C240.22 737.341 240.653 737.515 241 737.601C241.433 737.688 242.04 737.731 242.82 737.731H224.23C225.01 737.731 225.573 737.688 225.92 737.601C226.353 737.515 226.83 737.341 227.35 737.081C227.87 736.735 228.26 736.128 228.52 735.261C228.78 734.395 228.91 733.225 228.91 731.751V652.711C228.91 651.238 228.78 650.068 228.52 649.201C228.26 648.335 227.87 647.728 227.35 647.381C226.83 647.035 226.353 646.861 225.92 646.861C225.573 646.775 225.01 646.731 224.23 646.731H238.14H238.27H242.82C242.387 646.731 242.04 646.731 241.78 646.731H247.63C253.523 646.731 258.853 647.295 263.62 648.421C265.267 648.768 266.913 649.245 268.56 649.851C272.807 651.325 276.273 653.275 278.96 655.701C281.733 658.041 283.51 660.598 284.29 663.371C285.07 666.058 285.07 668.745 284.29 671.431C283.51 674.118 281.733 676.675 278.96 679.101C276.273 681.441 272.807 683.348 268.56 684.821C266.913 685.428 265.223 685.905 263.49 686.251C263.403 686.338 263.317 686.381 263.23 686.381C259.937 687.161 256.383 687.638 252.57 687.811L284.81 735.001ZM247.63 684.821C248.67 684.821 249.623 684.821 250.49 684.821C258.463 684.388 264.617 682.481 268.95 679.101C273.37 675.721 275.58 671.821 275.58 667.401C275.58 665.581 275.233 663.848 274.54 662.201C273.847 660.468 272.72 658.865 271.16 657.391C269.6 655.918 267.737 654.618 265.57 653.491C263.403 652.365 260.76 651.498 257.64 650.891C254.607 650.198 251.27 649.851 247.63 649.851H238.4C238.227 650.631 238.14 651.585 238.14 652.711V684.821H247.63ZM356.285 735.001C356.371 735.001 356.501 735.175 356.675 735.521C356.935 735.781 357.108 735.955 357.195 736.041C357.281 736.128 357.411 736.301 357.585 736.561C357.845 736.821 358.061 736.995 358.235 737.081C358.408 737.168 358.625 737.298 358.885 737.471C359.231 737.558 359.535 737.645 359.795 737.731C360.141 737.731 360.531 737.731 360.965 737.731H346.925H346.795H342.245C343.545 737.731 344.455 737.558 344.975 737.211C345.755 736.778 345.885 736.215 345.365 735.521L312.865 687.941H309.615V731.751C309.615 733.225 309.745 734.395 310.005 735.261C310.265 736.128 310.655 736.735 311.175 737.081C311.695 737.341 312.128 737.515 312.475 737.601C312.908 737.688 313.515 737.731 314.295 737.731H295.705C296.485 737.731 297.048 737.688 297.395 737.601C297.828 737.515 298.305 737.341 298.825 737.081C299.345 736.735 299.735 736.128 299.995 735.261C300.255 734.395 300.385 733.225 300.385 731.751V652.711C300.385 651.238 300.255 650.068 299.995 649.201C299.735 648.335 299.345 647.728 298.825 647.381C298.305 647.035 297.828 646.861 297.395 646.861C297.048 646.775 296.485 646.731 295.705 646.731H309.615H309.745H314.295C313.861 646.731 313.515 646.731 313.255 646.731H319.105C324.998 646.731 330.328 647.295 335.095 648.421C336.741 648.768 338.388 649.245 340.035 649.851C344.281 651.325 347.748 653.275 350.435 655.701C353.208 658.041 354.985 660.598 355.765 663.371C356.545 666.058 356.545 668.745 355.765 671.431C354.985 674.118 353.208 676.675 350.435 679.101C347.748 681.441 344.281 683.348 340.035 684.821C338.388 685.428 336.698 685.905 334.965 686.251C334.878 686.338 334.791 686.381 334.705 686.381C331.411 687.161 327.858 687.638 324.045 687.811L356.285 735.001ZM319.105 684.821C320.145 684.821 321.098 684.821 321.965 684.821C329.938 684.388 336.091 682.481 340.425 679.101C344.845 675.721 347.055 671.821 347.055 667.401C347.055 665.581 346.708 663.848 346.015 662.201C345.321 660.468 344.195 658.865 342.635 657.391C341.075 655.918 339.211 654.618 337.045 653.491C334.878 652.365 332.235 651.498 329.115 650.891C326.081 650.198 322.745 649.851 319.105 649.851H309.875C309.701 650.631 309.615 651.585 309.615 652.711V684.821H319.105ZM405.206 646.341H416.386C415.173 646.341 414.306 646.471 413.786 646.731C413.7 646.731 413.613 646.775 413.526 646.861C413.526 646.861 413.44 646.905 413.266 646.991C413.266 647.078 413.223 647.121 413.136 647.121C413.05 647.208 412.963 647.338 412.876 647.511C412.79 647.511 412.746 647.555 412.746 647.641C412.66 647.815 412.573 647.988 412.486 648.161C412.4 648.248 412.356 648.291 412.356 648.291L393.116 687.161V731.881C393.116 733.268 393.203 734.395 393.376 735.261C393.636 736.128 394.026 736.735 394.546 737.081C395.066 737.341 395.5 737.515 395.846 737.601C396.28 737.688 396.886 737.731 397.666 737.731H393.116H384.276H379.076C379.856 737.731 380.42 737.688 380.766 737.601C381.2 737.515 381.676 737.341 382.196 737.081C382.716 736.735 383.106 736.128 383.366 735.261C383.626 734.395 383.756 733.225 383.756 731.751V731.881V687.811L364.516 652.191L363.346 649.721C361.353 647.555 358.883 646.428 355.936 646.341H376.606C374.786 646.341 373.573 646.731 372.966 647.511C372.793 647.771 372.75 648.075 372.836 648.421V648.551L383.756 668.701L391.686 683.521L393.116 680.661L409.106 648.031C408.586 646.905 407.286 646.341 405.206 646.341ZM552.331 687.941C557.011 689.501 560.997 691.538 564.291 694.051C567.584 696.565 569.967 699.295 571.441 702.241C573.001 705.101 573.781 708.135 573.781 711.341C573.781 714.548 573.001 717.625 571.441 720.571C569.881 723.431 567.411 726.118 564.031 728.631C560.651 731.145 556.621 733.181 551.941 734.741C550.121 735.261 548.257 735.738 546.351 736.171C541.497 737.211 536.211 737.731 530.491 737.731H524.641C524.901 737.731 525.247 737.731 525.681 737.731H521.131H511.771H507.091C507.871 737.731 508.434 737.688 508.781 737.601C509.214 737.515 509.691 737.298 510.211 736.951C510.731 736.605 511.121 735.998 511.381 735.131C511.641 734.265 511.771 733.138 511.771 731.751V652.711C511.771 651.238 511.641 650.068 511.381 649.201C511.121 648.335 510.731 647.728 510.211 647.381C509.691 647.035 509.214 646.861 508.781 646.861C508.434 646.775 507.871 646.731 507.091 646.731H521.131H525.681C525.247 646.731 524.901 646.731 524.641 646.731H530.491C536.384 646.731 541.714 647.295 546.481 648.421C548.127 648.768 549.774 649.245 551.421 649.851C556.707 651.671 560.781 654.228 563.641 657.521C566.501 660.728 567.931 664.021 567.931 667.401C567.931 670.695 566.501 673.988 563.641 677.281C560.781 680.488 556.707 683.001 551.421 684.821C549.774 685.428 548.084 685.905 546.351 686.251C546.264 686.338 546.177 686.381 546.091 686.381C546.264 686.381 546.351 686.381 546.351 686.381C548.431 686.815 550.424 687.335 552.331 687.941ZM521.261 649.851C521.174 650.631 521.131 651.585 521.131 652.711V684.821H530.491C534.477 684.821 538.161 684.431 541.541 683.651C544.921 682.871 547.694 681.831 549.861 680.531C552.027 679.145 553.847 677.585 555.321 675.851C556.881 674.031 557.834 672.168 558.181 670.261C558.527 668.355 558.527 666.448 558.181 664.541C557.834 662.548 556.881 660.685 555.321 658.951C553.847 657.131 552.027 655.571 549.861 654.271C547.694 652.885 544.921 651.801 541.541 651.021C538.161 650.241 534.477 649.851 530.491 649.851H521.261ZM530.491 734.611C536.037 734.611 541.021 733.961 545.441 732.661C549.861 731.275 553.414 729.498 556.101 727.331C558.874 725.165 560.997 722.695 562.471 719.921C564.031 717.061 564.811 714.201 564.811 711.341C564.811 708.395 564.031 705.535 562.471 702.761C560.997 699.901 558.874 697.388 556.101 695.221C553.414 693.055 549.861 691.321 545.441 690.021C541.021 688.635 536.037 687.941 530.491 687.941H521.131V731.751C521.131 732.878 521.174 733.831 521.261 734.611H530.491ZM575.901 739.161H576.031C576.031 739.161 575.988 739.161 575.901 739.161ZM653.641 751.511C657.108 751.771 660.921 751.338 665.081 750.211C669.241 749.085 672.665 747.871 675.351 746.571C678.125 745.271 681.808 743.408 686.401 740.981C685.101 741.761 683.585 742.758 681.851 743.971C680.205 745.271 678.645 746.485 677.171 747.611C675.785 748.738 674.181 749.951 672.361 751.251C670.628 752.551 668.938 753.678 667.291 754.631C665.731 755.671 663.911 756.625 661.831 757.491C659.751 758.358 657.671 759.008 655.591 759.441C653.598 759.875 651.301 760.091 648.701 760.091C646.188 760.091 643.588 759.788 640.901 759.181C635.788 758.055 628.898 755.151 620.231 750.471C611.651 745.878 605.021 742.975 600.341 741.761C594.535 740.288 586.431 739.421 576.031 739.161C577.938 737.948 581.145 737.211 585.651 736.951C586.605 736.171 587.081 734.481 587.081 731.881V652.711C587.081 651.325 586.951 650.198 586.691 649.331C586.431 648.465 586.041 647.858 585.521 647.511C585.001 647.165 584.525 646.948 584.091 646.861C583.745 646.775 583.181 646.731 582.401 646.731H600.991C600.211 646.731 599.605 646.775 599.171 646.861C598.825 646.948 598.391 647.165 597.871 647.511C597.351 647.771 596.961 648.335 596.701 649.201C596.528 650.068 596.441 651.195 596.441 652.581V732.011C596.441 733.051 596.485 733.961 596.571 734.741C596.571 735.868 596.701 736.735 596.961 737.341C598.435 737.515 599.735 737.688 600.861 737.861C603.721 738.208 606.798 738.815 610.091 739.681C613.471 740.548 616.375 741.371 618.801 742.151C621.228 742.931 624.218 743.928 627.771 745.141C631.411 746.441 634.315 747.438 636.481 748.131C642.548 749.951 648.268 751.078 653.641 751.511ZM667.161 732.141C661.181 736.215 654.681 738.251 647.661 738.251C640.641 738.251 634.141 736.215 628.161 732.141C622.181 727.981 617.458 722.391 613.991 715.371C610.525 708.265 608.791 700.551 608.791 692.231C608.791 683.911 610.525 676.241 613.991 669.221C617.458 662.115 622.181 656.525 628.161 652.451C634.141 648.291 640.641 646.211 647.661 646.211C654.681 646.211 661.181 648.291 667.161 652.451C673.141 656.525 677.821 662.115 681.201 669.221C684.668 676.241 686.401 683.911 686.401 692.231C686.401 700.551 684.668 708.265 681.201 715.371C677.821 722.391 673.141 727.981 667.161 732.141ZM650.781 652.971C645.408 650.718 640.165 650.371 635.051 651.931C629.938 653.491 625.778 656.828 622.571 661.941C619.365 666.968 617.501 672.818 616.981 679.491C616.461 686.165 617.285 693.358 619.451 701.071C621.791 708.351 625.171 714.721 629.591 720.181C634.011 725.555 638.951 729.368 644.411 731.621C649.871 733.875 655.158 734.221 660.271 732.661C665.385 731.015 669.545 727.678 672.751 722.651C675.958 717.625 677.778 711.775 678.211 705.101C678.731 698.341 677.908 691.148 675.741 683.521C673.488 676.155 670.108 669.785 665.601 664.411C661.181 658.951 656.241 655.138 650.781 652.971ZM757.375 665.451C757.375 666.058 757.332 666.621 757.245 667.141C757.245 666.968 757.245 666.708 757.245 666.361C757.332 665.928 757.375 665.625 757.375 665.451ZM756.465 702.241C760.885 707.788 762.402 713.638 761.015 719.791C759.715 725.858 755.945 730.625 749.705 734.091C746.672 735.825 742.512 736.951 737.225 737.471C732.025 737.905 726.739 737.861 721.365 737.341C716.078 736.735 711.138 735.781 706.545 734.481L694.455 730.971V716.411C694.455 718.578 695.148 720.961 696.535 723.561C697.922 726.075 699.395 727.808 700.955 728.761C701.215 728.848 702.212 729.325 703.945 730.191C705.678 730.971 706.805 731.448 707.325 731.621C712.092 732.835 716.989 733.571 722.015 733.831C727.129 734.091 731.939 733.875 736.445 733.181C740.952 732.401 744.679 730.798 747.625 728.371C750.659 725.945 752.262 722.825 752.435 719.011C752.522 716.411 752.002 713.941 750.875 711.601C749.749 709.175 748.319 707.138 746.585 705.491C744.939 703.758 742.729 702.025 739.955 700.291C737.269 698.558 734.842 697.171 732.675 696.131C730.509 695.005 727.822 693.705 724.615 692.231C721.495 690.758 719.112 689.588 717.465 688.721C714.345 687.075 711.962 685.775 710.315 684.821C708.755 683.868 706.805 682.395 704.465 680.401C702.125 678.408 700.348 676.371 699.135 674.291C696.708 669.785 696.362 665.148 698.095 660.381C699.828 655.615 702.948 652.105 707.455 649.851C712.135 647.511 718.289 646.428 725.915 646.601C736.489 646.948 746.975 648.985 757.375 652.711C757.375 655.571 757.375 659.818 757.375 665.451C757.202 664.065 756.812 662.721 756.205 661.421C755.599 660.035 754.775 658.821 753.735 657.781C752.782 656.655 751.699 655.701 750.485 654.921C747.365 652.841 742.729 651.325 736.575 650.371C735.102 650.198 733.672 650.025 732.285 649.851C730.899 649.678 729.035 649.505 726.695 649.331C724.442 649.158 722.362 649.115 720.455 649.201C718.549 649.288 716.555 649.548 714.475 649.981C712.482 650.328 710.792 650.891 709.405 651.671C708.105 652.451 707.065 653.535 706.285 654.921C705.592 656.308 705.375 657.955 705.635 659.861C705.895 661.595 706.675 663.545 707.975 665.711C710.055 669.091 712.699 672.168 715.905 674.941C719.199 677.715 722.622 680.098 726.175 682.091C729.729 683.998 733.282 685.905 736.835 687.811C740.389 689.631 743.942 691.798 747.495 694.311C751.049 696.738 754.039 699.381 756.465 702.241ZM833.039 665.451C833.039 666.058 832.996 666.621 832.909 667.141C832.909 666.968 832.909 666.708 832.909 666.361C832.996 665.928 833.039 665.625 833.039 665.451ZM832.129 702.241C836.549 707.788 838.066 713.638 836.679 719.791C835.379 725.858 831.609 730.625 825.369 734.091C822.336 735.825 818.176 736.951 812.889 737.471C807.689 737.905 802.403 737.861 797.029 737.341C791.743 736.735 786.803 735.781 782.209 734.481L770.119 730.971V716.411C770.119 718.578 770.813 720.961 772.199 723.561C773.586 726.075 775.059 727.808 776.619 728.761C776.879 728.848 777.876 729.325 779.609 730.191C781.343 730.971 782.469 731.448 782.989 731.621C787.756 732.835 792.653 733.571 797.679 733.831C802.793 734.091 807.603 733.875 812.109 733.181C816.616 732.401 820.343 730.798 823.289 728.371C826.323 725.945 827.926 722.825 828.099 719.011C828.186 716.411 827.666 713.941 826.539 711.601C825.413 709.175 823.983 707.138 822.249 705.491C820.603 703.758 818.393 702.025 815.619 700.291C812.933 698.558 810.506 697.171 808.339 696.131C806.173 695.005 803.486 693.705 800.279 692.231C797.159 690.758 794.776 689.588 793.129 688.721C790.009 687.075 787.626 685.775 785.979 684.821C784.419 683.868 782.469 682.395 780.129 680.401C777.789 678.408 776.013 676.371 774.799 674.291C772.373 669.785 772.026 665.148 773.759 660.381C775.493 655.615 778.613 652.105 783.119 649.851C787.799 647.511 793.953 646.428 801.579 646.601C812.153 646.948 822.639 648.985 833.039 652.711C833.039 655.571 833.039 659.818 833.039 665.451C832.866 664.065 832.476 662.721 831.869 661.421C831.263 660.035 830.439 658.821 829.399 657.781C828.446 656.655 827.363 655.701 826.149 654.921C823.029 652.841 818.393 651.325 812.239 650.371C810.766 650.198 809.336 650.025 807.949 649.851C806.563 649.678 804.699 649.505 802.359 649.331C800.106 649.158 798.026 649.115 796.119 649.201C794.213 649.288 792.219 649.548 790.139 649.981C788.146 650.328 786.456 650.891 785.069 651.671C783.769 652.451 782.729 653.535 781.949 654.921C781.256 656.308 781.039 657.955 781.299 659.861C781.559 661.595 782.339 663.545 783.639 665.711C785.719 669.091 788.363 672.168 791.569 674.941C794.863 677.715 798.286 680.098 801.839 682.091C805.393 683.998 808.946 685.905 812.499 687.811C816.053 689.631 819.606 691.798 823.159 694.311C826.713 696.738 829.703 699.381 832.129 702.241ZM865.413 652.321C871.393 648.248 877.893 646.211 884.913 646.211C892.02 646.211 898.52 648.248 904.413 652.321C910.393 656.395 915.117 661.985 918.583 669.091C922.05 676.111 923.783 683.825 923.783 692.231C923.783 700.551 922.05 708.265 918.583 715.371C915.117 722.391 910.393 727.938 904.413 732.011C898.52 736.085 892.02 738.121 884.913 738.121C877.893 738.121 871.393 736.085 865.413 732.011C859.52 727.938 854.84 722.391 851.373 715.371C847.907 708.265 846.173 700.551 846.173 692.231C846.173 683.825 847.907 676.111 851.373 669.091C854.84 661.985 859.52 656.395 865.413 652.321ZM897.653 732.531C902.68 730.971 906.797 727.678 910.003 722.651C913.297 717.538 915.16 711.645 915.593 704.971C916.113 698.211 915.29 691.018 913.123 683.391C909.657 672.211 903.937 663.545 895.963 657.391C887.99 651.238 880.147 649.375 872.433 651.801C867.32 653.448 863.117 656.785 859.823 661.811C856.617 666.838 854.753 672.731 854.233 679.491C853.8 686.165 854.667 693.315 856.833 700.941C860.3 712.121 866.02 720.788 873.993 726.941C881.967 733.095 889.853 734.958 897.653 732.531ZM1012.18 731.751C1012.18 733.225 1012.27 734.395 1012.44 735.261C1012.7 736.128 1013.09 736.735 1013.61 737.081C1014.22 737.341 1014.69 737.515 1015.04 737.601C1015.47 737.688 1016.08 737.731 1016.86 737.731H998.139C998.746 737.731 999.223 737.731 999.569 737.731C999.916 737.645 1000.31 737.515 1000.74 737.341C1001.26 737.168 1001.65 736.908 1001.91 736.561C1002.17 736.128 1002.39 735.521 1002.56 734.741C1002.73 733.961 1002.82 732.965 1002.82 731.751V657.001L976.429 729.541V729.671L973.829 736.561L973.439 737.731H969.409L969.279 737.341L968.629 735.521L967.329 732.011L940.679 658.691V731.751C940.679 733.138 940.766 734.265 940.939 735.131C941.199 735.998 941.589 736.605 942.109 736.951C942.629 737.298 943.063 737.515 943.409 737.601C943.843 737.688 944.449 737.731 945.229 737.731H932.879C933.659 737.731 934.223 737.688 934.569 737.601C935.003 737.515 935.479 737.298 935.999 736.951C936.519 736.605 936.909 735.998 937.169 735.131C937.429 734.265 937.559 733.138 937.559 731.751V650.111L937.169 649.071C936.736 648.291 935.739 647.728 934.179 647.381C932.706 646.948 931.363 646.731 930.149 646.731H950.819C948.999 646.731 947.786 647.121 947.179 647.901C946.919 648.161 946.876 648.508 947.049 648.941L974.739 725.121L1002.43 649.071C1002.17 648.291 1001.78 647.728 1001.26 647.381C1000.74 647.035 1000.26 646.861 999.829 646.861C999.483 646.775 998.919 646.731 998.139 646.731H1016.86C1016.08 646.731 1015.47 646.775 1015.04 646.861C1014.69 646.861 1014.22 647.035 1013.61 647.381C1013.09 647.728 1012.7 648.335 1012.44 649.201C1012.27 650.068 1012.18 651.195 1012.18 652.581V731.751Z" fill="#665F5F"/>
<path d="M836.4 608.131H981.049C966.53 530.672 931.957 460.104 882.809 401.803M380.574 608.131L72.1714 608.289C111.664 397.18 300.11 237.211 526.625 237.211C595.668 237.211 661.174 252.073 720.004 278.715C721.582 279.43 723.156 280.154 724.725 280.885M961.694 843.815C897.706 1018.94 727.071 1144.2 526.625 1144.2C340.633 1144.2 180.307 1036.35 107.033 880.892" stroke="#665F5F" stroke-width="3" stroke-linecap="round" stroke-linejoin="round"/>
<path d="M66.134 775.029H49.884V787.929H65.384V791.229H49.884V806.729H46.384V771.729H66.134V775.029ZM93.6165 803.429H109.616V806.729H90.1165V771.729H93.6165V803.429ZM159.088 802.079C155.588 805.579 151.305 807.329 146.238 807.329C141.171 807.329 136.888 805.579 133.388 802.079C129.888 798.546 128.138 794.263 128.138 789.229C128.138 784.196 129.888 779.929 133.388 776.429C136.888 772.896 141.171 771.129 146.238 771.129C151.305 771.129 155.588 772.896 159.088 776.429C162.588 779.929 164.338 784.196 164.338 789.229C164.338 794.263 162.588 798.546 159.088 802.079ZM135.838 799.679C138.638 802.513 142.105 803.929 146.238 803.929C150.371 803.929 153.838 802.513 156.638 799.679C159.438 796.813 160.838 793.329 160.838 789.229C160.838 785.129 159.438 781.663 156.638 778.829C153.838 775.963 150.371 774.529 146.238 774.529C142.105 774.529 138.638 775.963 135.838 778.829C133.038 781.663 131.638 785.129 131.638 789.229C131.638 793.329 133.038 796.813 135.838 799.679ZM209.823 806.729L201.623 792.729H191.823V806.729H188.323V771.729H202.323C205.223 771.729 207.69 772.763 209.723 774.829C211.79 776.863 212.823 779.329 212.823 782.229C212.823 784.596 212.107 786.713 210.673 788.579C209.273 790.413 207.473 791.646 205.273 792.279L213.823 806.729H209.823ZM191.823 775.029V789.429H202.323C204.257 789.429 205.907 788.729 207.273 787.329C208.64 785.896 209.323 784.196 209.323 782.229C209.323 780.229 208.64 778.529 207.273 777.129C205.907 775.729 204.257 775.029 202.323 775.029H191.823ZM236.841 771.729H240.341V806.729H236.841V771.729ZM276.876 807.329C273.676 807.329 270.926 806.579 268.626 805.079C266.36 803.546 264.776 801.446 263.876 798.779L266.876 797.029C267.51 799.196 268.676 800.896 270.376 802.129C272.076 803.329 274.26 803.929 276.926 803.929C279.526 803.929 281.543 803.363 282.976 802.229C284.443 801.063 285.176 799.529 285.176 797.629C285.176 795.796 284.51 794.413 283.176 793.479C281.843 792.546 279.643 791.579 276.576 790.579C272.943 789.379 270.543 788.413 269.376 787.679C266.71 786.079 265.376 783.763 265.376 780.729C265.376 777.763 266.41 775.429 268.476 773.729C270.543 771.996 273.093 771.129 276.126 771.129C278.86 771.129 281.226 771.846 283.226 773.279C285.226 774.679 286.71 776.479 287.676 778.679L284.726 780.329C283.126 776.463 280.26 774.529 276.126 774.529C273.96 774.529 272.21 775.063 270.876 776.129C269.543 777.196 268.876 778.679 268.876 780.579C268.876 782.313 269.476 783.613 270.676 784.479C271.876 785.346 273.86 786.229 276.626 787.129C277.893 787.563 278.793 787.879 279.326 788.079C279.893 788.246 280.693 788.546 281.726 788.979C282.793 789.379 283.576 789.746 284.076 790.079C284.576 790.379 285.176 790.813 285.876 791.379C286.61 791.913 287.126 792.463 287.426 793.029C287.76 793.563 288.043 794.229 288.276 795.029C288.543 795.796 288.676 796.629 288.676 797.529C288.676 800.496 287.593 802.879 285.426 804.679C283.26 806.446 280.41 807.329 276.876 807.329ZM333.415 771.729V775.029H322.665V806.729H319.165V775.029H308.415V771.729H333.415ZM386.917 771.729H390.417V806.729H386.917V771.729ZM438.941 771.729H442.441V806.729H439.441L419.941 778.229V806.729H416.441V771.729H419.441L438.941 800.229V771.729ZM502.425 803.429H518.425V806.729H498.925V771.729H502.425V803.429ZM567.897 802.079C564.397 805.579 560.113 807.329 555.047 807.329C549.98 807.329 545.697 805.579 542.197 802.079C538.697 798.546 536.947 794.263 536.947 789.229C536.947 784.196 538.697 779.929 542.197 776.429C545.697 772.896 549.98 771.129 555.047 771.129C560.113 771.129 564.397 772.896 567.897 776.429C571.397 779.929 573.147 784.196 573.147 789.229C573.147 794.263 571.397 798.546 567.897 802.079ZM544.647 799.679C547.447 802.513 550.913 803.929 555.047 803.929C559.18 803.929 562.647 802.513 565.447 799.679C568.247 796.813 569.647 793.329 569.647 789.229C569.647 785.129 568.247 781.663 565.447 778.829C562.647 775.963 559.18 774.529 555.047 774.529C550.913 774.529 547.447 775.963 544.647 778.829C541.847 781.663 540.447 785.129 540.447 789.229C540.447 793.329 541.847 796.813 544.647 799.679ZM606.863 807.329C603.663 807.329 600.913 806.579 598.613 805.079C596.346 803.546 594.763 801.446 593.863 798.779L596.863 797.029C597.496 799.196 598.663 800.896 600.363 802.129C602.063 803.329 604.246 803.929 606.913 803.929C609.513 803.929 611.529 803.363 612.963 802.229C614.429 801.063 615.163 799.529 615.163 797.629C615.163 795.796 614.496 794.413 613.163 793.479C611.829 792.546 609.629 791.579 606.563 790.579C602.929 789.379 600.529 788.413 599.363 787.679C596.696 786.079 595.363 783.763 595.363 780.729C595.363 777.763 596.396 775.429 598.463 773.729C600.529 771.996 603.079 771.129 606.113 771.129C608.846 771.129 611.213 771.846 613.213 773.279C615.213 774.679 616.696 776.479 617.663 778.679L614.713 780.329C613.113 776.463 610.246 774.529 606.113 774.529C603.946 774.529 602.196 775.063 600.863 776.129C599.529 777.196 598.863 778.679 598.863 780.579C598.863 782.313 599.463 783.613 600.663 784.479C601.863 785.346 603.846 786.229 606.613 787.129C607.879 787.563 608.779 787.879 609.313 788.079C609.879 788.246 610.679 788.546 611.713 788.979C612.779 789.379 613.563 789.746 614.063 790.079C614.563 790.379 615.163 790.813 615.863 791.379C616.596 791.913 617.113 792.463 617.413 793.029C617.746 793.563 618.029 794.229 618.263 795.029C618.529 795.796 618.663 796.629 618.663 797.529C618.663 800.496 617.579 802.879 615.413 804.679C613.246 806.446 610.396 807.329 606.863 807.329ZM696.471 806.729L693.221 798.129H676.621L673.371 806.729H669.671L683.121 771.729H686.721L700.171 806.729H696.471ZM677.871 794.829H691.971L684.921 776.079L677.871 794.829ZM745.165 771.729H748.665V806.729H745.665L726.165 778.229V806.729H722.665V771.729H725.665L745.165 800.229V771.729ZM808.1 790.079V791.879C808.1 796.213 806.55 799.879 803.45 802.879C800.35 805.846 796.2 807.329 791 807.329C785.7 807.329 781.316 805.579 777.85 802.079C774.383 798.579 772.65 794.296 772.65 789.229C772.65 784.163 774.383 779.879 777.85 776.379C781.316 772.879 785.7 771.129 791 771.129C794.233 771.129 797.2 771.913 799.9 773.479C802.6 775.046 804.683 777.129 806.15 779.729L803.05 781.529C801.95 779.396 800.316 777.696 798.15 776.429C795.983 775.163 793.6 774.529 791 774.529C786.633 774.529 783.066 775.946 780.3 778.779C777.533 781.613 776.15 785.096 776.15 789.229C776.15 793.363 777.533 796.846 780.3 799.679C783.066 802.513 786.633 803.929 791 803.929C794.933 803.929 798.083 802.946 800.45 800.979C802.816 798.979 804.166 796.446 804.5 793.379H790.6V790.079H808.1ZM835.603 803.429H852.603V806.729H832.103V771.729H852.353V775.029H835.603V787.429H851.103V790.729H835.603V803.429ZM880.116 803.429H896.116V806.729H876.616V771.729H880.116V803.429ZM922.628 803.429H939.628V806.729H919.128V771.729H939.378V775.029H922.628V787.429H938.128V790.729H922.628V803.429ZM974.642 807.329C971.442 807.329 968.692 806.579 966.392 805.079C964.125 803.546 962.542 801.446 961.642 798.779L964.642 797.029C965.275 799.196 966.442 800.896 968.142 802.129C969.842 803.329 972.025 803.929 974.692 803.929C977.292 803.929 979.309 803.363 980.742 802.229C982.209 801.063 982.942 799.529 982.942 797.629C982.942 795.796 982.275 794.413 980.942 793.479C979.609 792.546 977.409 791.579 974.342 790.579C970.709 789.379 968.309 788.413 967.142 787.679C964.475 786.079 963.142 783.763 963.142 780.729C963.142 777.763 964.175 775.429 966.242 773.729C968.309 771.996 970.859 771.129 973.892 771.129C976.625 771.129 978.992 771.846 980.992 773.279C982.992 774.679 984.475 776.479 985.442 778.679L982.492 780.329C980.892 776.463 978.025 774.529 973.892 774.529C971.725 774.529 969.975 775.063 968.642 776.129C967.309 777.196 966.642 778.679 966.642 780.579C966.642 782.313 967.242 783.613 968.442 784.479C969.642 785.346 971.625 786.229 974.392 787.129C975.659 787.563 976.559 787.879 977.092 788.079C977.659 788.246 978.459 788.546 979.492 788.979C980.559 789.379 981.342 789.746 981.842 790.079C982.342 790.379 982.942 790.813 983.642 791.379C984.375 791.913 984.892 792.463 985.192 793.029C985.525 793.563 985.809 794.229 986.042 795.029C986.309 795.796 986.442 796.629 986.442 797.529C986.442 800.496 985.359 802.879 983.192 804.679C981.025 806.446 978.175 807.329 974.642 807.329Z" fill="#665F5F"/>
<path d="M268.508 1012.9C244.086 1000.26 188.509 973.639 161.578 968.197" stroke="#665F5F" stroke-width="3"/>
<path d="M314.975 980.811C295.504 972.066 232.073 952.26 145.737 946.819" stroke="#665F5F" stroke-width="3"/>
<path d="M367.518 948.762C323.954 937.749 216.034 917.861 132.866 926.413" stroke="#665F5F" stroke-width="3"/>
<path d="M434.388 916.178C400.395 904.841 288.632 884.959 117.544 902.839" stroke="#665F5F" stroke-width="3"/>
<path d="M565.215 1142.31C630.942 1056.49 800.316 884.634 945.036 883.924" stroke="#665F5F" stroke-width="3"/>
<path d="M711.765 1106.17C738.297 1054.09 821.007 938.486 936.059 900.847" stroke="#665F5F" stroke-width="3"/>
<path d="M431.287 1135.28C507.265 1043.55 718.799 861.254 949.627 873.327" stroke="#665F5F" stroke-width="3"/>
<path d="M322.578 1098.44C402.876 1003.25 641.813 822.051 955.17 858.792" stroke="#665F5F" stroke-width="3"/>
<path d="M233.147 1042.16C334.576 950.045 624.819 782.057 961.93 845.254" stroke="#665F5F" stroke-width="3"/>
<path d="M498.95 888.793C422.821 872.39 272.051 844.219 108.421 882.071" stroke="#665F5F" stroke-width="3"/>
<mask id="path-39-inside-1_1_2" fill="white">
<path fill-rule="evenodd" clip-rule="evenodd" d="M852.273 275.27C851.193 276.33 848.552 279.737 846.401 282.841C839.756 292.438 825.899 310.814 817.036 321.78C812.384 327.537 808.01 333.25 807.318 334.477C805.266 338.105 801.773 335.321 801.276 329.663C800.66 322.64 792.049 305.544 789.129 305.544C787.555 305.544 787.312 307.914 788.262 313.994C789.696 323.172 788.856 341.786 786.541 352.104C785.179 358.174 784.123 359.589 769.72 374.613C758.684 386.126 754.04 390.324 753.241 389.508C752.63 388.883 751.101 384.937 749.843 380.739L747.556 373.106L753.532 366.133C765.809 351.808 769.272 331.669 762.723 312.679C759.417 303.094 758.292 301.266 753.503 297.683C746.627 292.541 741.204 291.668 732.572 294.314C726.641 296.133 724.89 297.401 719.031 304.121C715.331 308.367 712.022 311.563 711.677 311.226C711.333 310.888 711.113 308.226 711.187 305.312L711.323 300.013L708.2 302.445C699.179 309.475 695.469 329.609 700.502 344.217C705.607 359.03 717.22 372.059 728.99 376.175C733.97 377.918 734.191 378.196 736.589 385.719C737.946 389.981 739.182 396.179 739.335 399.494L739.614 405.52L727.593 416.093C720.982 421.908 715.185 426.691 714.713 426.721C714.24 426.751 712.99 424.768 711.935 422.314C708.292 413.843 698.942 397.586 697.523 397.258C695.341 396.753 694.164 402.257 695.795 405.345C696.591 406.853 697.67 413.199 698.192 419.449C699.141 430.797 699.152 430.822 706.719 438.977L714.294 447.143L719.041 443.899C721.651 442.115 726.894 437.659 730.689 433.995C739 425.977 742.472 424.78 757.004 424.923C763.116 424.983 768.681 424.48 769.37 423.804C770.059 423.128 769.213 420.178 767.492 417.251C760.906 406.043 760.673 407.304 771.602 395.008C779.954 385.612 782.161 383.735 785.991 382.768C792.221 381.194 801.202 383.285 805.242 387.25C809.407 391.339 825.81 399.995 829.612 400.114C832.015 400.188 832.086 399.407 830.117 394.68C828.851 391.646 826.348 387.269 824.552 384.956L821.289 380.75L827.731 374.427C834.032 368.244 838.501 360.429 837.684 357.029C837.044 354.37 822.306 359.789 815.577 365.157C809.223 370.225 804.494 370.712 800.42 366.714C798.591 364.919 799.416 363.309 808.328 351.263C819.82 335.733 831.176 318.55 843.485 298.074C853.814 280.889 858.234 269.419 852.273 275.27ZM850.233 355.805C842.747 354.495 840.791 355.804 838.455 363.692C837.356 367.402 834.48 372.963 832.063 376.051L827.669 381.665L831.848 392.48C836.506 404.531 837.019 404.892 847.861 403.772C857.032 402.823 864.171 396.889 867.151 387.738C868.356 384.041 868.817 379.244 868.175 377.078C867.119 373.506 866.217 372.852 858.456 370.018C853.75 368.301 849.902 366.411 849.901 365.819C849.901 365.227 851.94 364.227 854.43 363.599C861.858 361.723 859.548 357.435 850.233 355.805ZM575.863 307.514C563.93 299.395 554.635 295.616 541.675 293.614C531.345 292.018 520.849 293.83 509.616 299.151L500.482 303.477L494.744 297.844C486.789 290.037 469.941 281.756 457.117 279.351C439.301 276.009 418.778 281.876 406.734 293.756C396.471 303.878 389.655 320.357 391.167 331.387C392.896 343.993 396.386 349.895 410.815 364.612C419.817 373.794 425.355 380.449 427.643 384.829C432.343 393.83 437.043 398.322 439.369 396.04C441.657 393.793 441.457 374.833 439.1 370.621C436.226 365.483 436.464 362.947 440.02 360.858C441.795 359.815 444.004 359.136 444.927 359.351C447.78 360.012 449.518 364.361 448.385 367.996C446.405 374.341 446.63 402.74 448.677 404.749C449.766 405.817 450.914 406.439 451.228 406.131C451.543 405.821 453.54 398.306 455.665 389.429C458.133 379.123 459.052 371.436 458.212 368.162C456.69 362.241 459.433 358.5 465.091 358.777C469.886 359.012 471.47 363.568 468.363 368.189C465.685 372.175 457.106 405.076 457.682 409.149C458.49 414.854 461.553 411.803 467.011 399.862C470.068 393.172 474.381 384.472 476.597 380.528C479.288 375.735 480.335 371.997 479.754 369.258C478.722 364.399 481.181 361.494 486.116 361.735C488.921 361.873 490.036 362.68 491.33 365.509C492.666 368.428 492.328 369.744 489.541 372.479C486.532 375.433 472.793 399.565 469.019 408.526C467.204 412.834 470.132 413.283 474.065 409.3C480.497 402.785 497.16 379.69 497.422 376.928C497.571 375.358 499.112 372.966 500.846 371.614C503.489 369.553 504.574 369.624 507.577 372.051C510.484 374.402 510.902 375.608 509.805 378.489C508.923 380.8 507.185 382.656 504.807 383.823C501.386 385.501 484.441 405.287 481.253 411.325C479.811 414.056 480.835 415.673 483.598 415.033C487.272 414.182 512.175 393.366 513.416 390.109C515.028 385.877 520.471 384.336 523.457 387.267C527.929 391.656 525.434 397.178 518.323 398.631C516.278 399.05 510.061 402.918 504.508 407.228C481.034 425.444 481.453 425.063 483.139 426.719C484.829 428.377 488.574 426.896 509.203 416.419C517.029 412.444 522.737 408.733 523.862 406.89C525.617 404.014 531.115 402.685 533.121 404.654C534.298 405.809 535.187 414.603 534.221 415.552C533.765 415.999 530.865 416.528 527.777 416.726C521.653 417.118 487.068 433.266 485.647 436.397C484.162 439.67 486.223 439.828 495.034 437.117C499.789 435.653 508.61 433.421 514.637 432.159C520.662 430.896 526.523 428.996 527.659 427.938C530.327 425.456 535.504 424.773 537.416 426.649C539.505 428.699 538.97 434.597 536.475 437.046C535.194 438.303 532.375 438.594 529.166 437.799C525.903 436.991 518.259 437.818 508.806 440.001C493.298 443.582 489.856 445.164 492.32 447.582C494.128 449.356 522.052 448.957 529.16 447.055C535.265 445.421 537.991 447.145 537.72 452.468C537.43 458.189 532.993 460.44 528.178 457.311C523.931 454.551 503.709 453.4 501.283 455.781C499.073 457.95 503.456 463.016 510.274 466.171C514.796 468.262 521.974 473.843 533.608 484.309C551.42 500.333 554.031 501.832 565.883 502.833C579.037 503.945 595.203 497.939 605.038 488.287C610.494 482.932 617.539 470.413 619.438 462.7C624.442 442.37 617.253 418.081 601.717 402.834C594.582 395.831 593.563 392.87 597.097 389.402C598.261 388.259 600.353 383.984 601.747 379.901C609.009 358.613 603.494 336.145 586.504 317.813C582.286 313.261 577.498 308.626 575.863 307.514ZM735.873 466.081C729.101 463.04 722.699 461.784 719.994 462.966C718.559 463.593 717.945 466.813 718.189 472.439C718.595 481.757 717.252 487.205 712.599 495.134C709.685 500.101 710.063 503.129 714.105 507.183C716.071 509.156 720.39 503.893 721.208 498.524C722.137 492.446 726.475 489.718 729.887 493.067C733.378 496.493 732.397 499.45 725.745 505.539C720.834 510.036 719.817 511.667 720.243 514.377C721.312 521.177 725.513 521.086 734.771 514.062C740.345 509.832 742.529 510.107 743.605 515.171C744.791 520.767 742.667 522.445 733.835 522.885C725.12 523.318 724.3 523.884 725.192 528.845C726.218 534.57 728.054 535.483 737.841 535.141C746.202 534.848 746.993 535.103 748.285 538.493C750.22 543.572 744.884 548.002 740.714 544.778C733.065 538.862 726.564 538.54 726.564 544.075C726.564 547.773 727.847 549.043 732.962 550.412C738.183 551.808 748.6 562.033 752.084 569.179C756.568 578.379 757.241 578.6 761.928 572.42C770.33 561.34 773.121 547.728 769.658 534.708C768.273 529.501 765.986 525.655 760.574 519.447L753.341 511.147L754.42 503.336C756.398 489.023 747.597 471.345 735.873 466.081ZM694.84 438.673C680.224 430.295 664.244 432.281 652.256 443.964C639.097 456.787 635.278 474.578 642.395 489.911C647.315 500.517 650.228 503.201 653.415 500.073C662.126 491.524 685.082 487.8 695.769 493.201C698.645 494.655 701.761 495.878 702.693 495.916C705.757 496.042 711.14 482.135 711.653 472.771C711.927 467.734 711.269 460.934 710.186 457.66C708.007 451.065 700.71 442.039 694.84 438.673ZM694.411 500.336C678.425 494.802 661.105 499.236 652.307 511.113C647.651 517.397 643.948 526.93 644.383 531.512C644.807 535.989 642.736 536.971 628.881 538.858L615.896 540.626L605.069 531.218C599.114 526.045 594.242 521.43 594.241 520.96C594.242 520.491 603.752 515.333 615.376 509.496C626.999 503.66 636.97 498.433 637.532 497.881C638.658 496.777 634.69 485.384 633.181 485.384C632.663 485.384 627.022 488.21 620.645 491.663C582.698 512.218 579.48 513.534 566.744 513.711C560.194 513.802 547.156 515.322 537.77 517.09C523.207 519.832 519.807 521.02 514.588 525.183C506.354 531.754 496.052 535.084 482.348 535.084C473.246 535.084 466.92 532.784 459.658 529.216C453.246 526.066 448.527 526.209 441.427 525.859C428.165 525.204 418.165 523.246 403.484 518.431C391.533 514.51 387.406 512.231 389.155 510.515C389.648 510.031 392.921 508.577 396.429 507.283C405.699 503.864 422.738 487.143 425.516 478.739C426.589 475.49 427.849 471.661 427.336 471.158C426.822 470.653 421.036 470.708 417.637 471.158C411.667 471.946 412.832 473.199 407.752 480.286C403.497 486.225 401.324 488.106 395.35 491.546C382.554 498.915 367.079 499.306 357.855 492.493C351.002 487.432 330.12 475.239 323.027 472.155C320.133 470.898 317.323 469.434 316.781 468.901C315.128 467.279 318.503 465.026 326.362 462.5C333.335 460.26 338.707 456.837 337.346 455.501C337.022 455.183 328.819 455.01 319.118 455.118C299.322 455.336 286.985 452.549 268.371 443.652C257.586 438.498 220.25 430.178 204.62 415.498C195.204 406.653 176.152 393.379 175.446 393.725C174.747 394.068 166.268 404.389 161.007 411.027C151.924 421.891 138.211 442.354 138.211 442.354C131.192 453.423 181.899 463.547 182.6 464.213C183.301 464.878 239.969 466.502 246.263 467.822C279.665 474.83 338.817 498.205 366.191 515.216C376.388 521.551 396.62 537.382 404.791 545.418C427.976 568.213 443.998 600.122 448.66 632.776C449.822 640.92 450.92 648.193 451.099 648.938C451.474 650.494 472.706 658.975 476.166 658.95C481.287 658.912 476.047 646.974 467.008 638.085C462.363 633.516 461.687 631.997 461.344 625.37C460.913 617.026 461.73 615.671 468.465 613.568C474.351 611.729 481.235 614.501 488.507 621.638C495.376 628.379 504.32 631.739 515.933 631.939L523.948 632.077L520.834 626.244C517.818 620.595 512.136 615.174 499.341 605.742L494.104 601.882L498.409 594.402C504.808 583.288 509.12 558.397 504.822 557.4C502.585 556.882 492.751 562.926 487.722 567.909C485.349 570.261 481.359 576.396 478.854 581.543C473.493 592.56 471.707 594.522 464.154 597.697C457.661 600.428 456.709 599.879 454.846 592.34C452.859 584.298 446.357 572.563 436.726 559.639C432.05 553.363 427.769 547.396 427.214 546.377C426.53 545.121 430.519 544.494 439.61 544.428C470.634 544.203 502.075 540.785 541.255 533.38C569.798 527.985 576.319 528.486 590.616 537.169C598.511 541.963 602.606 545.564 614.213 557.918C628.824 573.468 632.451 575.963 635.746 572.729C637.198 571.304 636.679 569.743 633.321 565.439C627.05 557.403 627.744 555.741 638.887 552.092C646.238 549.686 648.471 549.525 649.198 551.348C649.709 552.628 652.007 556.81 654.306 560.64C663.13 575.35 678.86 580.835 695.901 575.145C704.309 572.337 706.213 571.144 710.466 566.009C713.158 562.76 716.473 557.272 717.836 553.813C725.616 534.065 713.777 507.039 694.411 500.336ZM731.666 556.027C725.959 552.571 725.289 552.803 723.076 559.009C718.017 573.202 702.684 583.699 685.438 584.778L676.521 585.335L677.09 589.326C679.101 603.423 693.135 619.405 707.103 623.505C721.396 627.701 736.865 623.408 744.903 613.015C758.336 595.643 751.993 568.338 731.666 556.027ZM405.858 371.989C403.642 371.782 398.161 373.344 393.675 375.461C372.114 385.641 362.717 412.606 372.84 435.253C378.163 447.156 389.566 457.988 401.176 462.169C410.33 465.465 428.389 466.081 431.327 463.198C434.159 460.418 437.392 441.072 436.777 430.579C435.703 412.247 428.415 394.445 415.854 379.479C410.873 373.543 409.219 372.304 405.858 371.989ZM515.876 478.006C503.377 468.612 485.404 462.448 468.307 461.693C455.935 461.148 438.368 464.19 435.043 467.453C431.607 470.825 432.924 488.845 437.3 498.334C442.537 509.69 456.428 522.114 468.384 526.138C477.976 529.367 490.474 529.114 500.735 525.484C513.713 520.892 528.102 504.02 528.675 492.72C528.845 489.397 524.714 484.648 515.876 478.006ZM453.891 430.202C450.431 429.262 446.66 429.117 445.511 429.881C444.32 430.673 443.2 435.373 442.904 440.818C442.619 446.07 442.595 447.57 441.992 450.074C441.491 452.156 441.062 454.404 441.548 455.976C442.687 457.6 443.45 457.58 448.703 456.579C452.154 455.922 458.311 455.316 462.381 455.235C466.453 455.154 470.217 454.663 470.745 454.144C471.275 453.624 470.894 450.142 469.9 446.404C467.636 437.892 462.294 432.485 453.891 430.202ZM532.319 554.631C525.38 553.111 511.82 553.121 510.273 554.645C509.878 555.034 509.598 559.783 509.65 565.196C509.708 571.302 508.205 579.58 505.692 586.993L501.639 598.948L511.842 609.049C519.082 616.216 522.658 620.701 524.158 624.498C526.217 629.712 526.365 629.829 529.938 629.096C531.955 628.683 537.017 626.378 541.189 623.975C555.367 615.806 563.967 598.722 560.487 585.638C557.137 573.038 546.876 566.974 532.216 568.927C517.82 570.846 517.931 566.782 532.391 562.467C544.049 558.988 544.033 557.194 532.319 554.631Z"/>
</mask>
<path fill-rule="evenodd" clip-rule="evenodd" d="M852.273 275.27C851.193 276.33 848.552 279.737 846.401 282.841C839.756 292.438 825.899 310.814 817.036 321.78C812.384 327.537 808.01 333.25 807.318 334.477C805.266 338.105 801.773 335.321 801.276 329.663C800.66 322.64 792.049 305.544 789.129 305.544C787.555 305.544 787.312 307.914 788.262 313.994C789.696 323.172 788.856 341.786 786.541 352.104C785.179 358.174 784.123 359.589 769.72 374.613C758.684 386.126 754.04 390.324 753.241 389.508C752.63 388.883 751.101 384.937 749.843 380.739L747.556 373.106L753.532 366.133C765.809 351.808 769.272 331.669 762.723 312.679C759.417 303.094 758.292 301.266 753.503 297.683C746.627 292.541 741.204 291.668 732.572 294.314C726.641 296.133 724.89 297.401 719.031 304.121C715.331 308.367 712.022 311.563 711.677 311.226C711.333 310.888 711.113 308.226 711.187 305.312L711.323 300.013L708.2 302.445C699.179 309.475 695.469 329.609 700.502 344.217C705.607 359.03 717.22 372.059 728.99 376.175C733.97 377.918 734.191 378.196 736.589 385.719C737.946 389.981 739.182 396.179 739.335 399.494L739.614 405.52L727.593 416.093C720.982 421.908 715.185 426.691 714.713 426.721C714.24 426.751 712.99 424.768 711.935 422.314C708.292 413.843 698.942 397.586 697.523 397.258C695.341 396.753 694.164 402.257 695.795 405.345C696.591 406.853 697.67 413.199 698.192 419.449C699.141 430.797 699.152 430.822 706.719 438.977L714.294 447.143L719.041 443.899C721.651 442.115 726.894 437.659 730.689 433.995C739 425.977 742.472 424.78 757.004 424.923C763.116 424.983 768.681 424.48 769.37 423.804C770.059 423.128 769.213 420.178 767.492 417.251C760.906 406.043 760.673 407.304 771.602 395.008C779.954 385.612 782.161 383.735 785.991 382.768C792.221 381.194 801.202 383.285 805.242 387.25C809.407 391.339 825.81 399.995 829.612 400.114C832.015 400.188 832.086 399.407 830.117 394.68C828.851 391.646 826.348 387.269 824.552 384.956L821.289 380.75L827.731 374.427C834.032 368.244 838.501 360.429 837.684 357.029C837.044 354.37 822.306 359.789 815.577 365.157C809.223 370.225 804.494 370.712 800.42 366.714C798.591 364.919 799.416 363.309 808.328 351.263C819.82 335.733 831.176 318.55 843.485 298.074C853.814 280.889 858.234 269.419 852.273 275.27ZM850.233 355.805C842.747 354.495 840.791 355.804 838.455 363.692C837.356 367.402 834.48 372.963 832.063 376.051L827.669 381.665L831.848 392.48C836.506 404.531 837.019 404.892 847.861 403.772C857.032 402.823 864.171 396.889 867.151 387.738C868.356 384.041 868.817 379.244 868.175 377.078C867.119 373.506 866.217 372.852 858.456 370.018C853.75 368.301 849.902 366.411 849.901 365.819C849.901 365.227 851.94 364.227 854.43 363.599C861.858 361.723 859.548 357.435 850.233 355.805ZM575.863 307.514C563.93 299.395 554.635 295.616 541.675 293.614C531.345 292.018 520.849 293.83 509.616 299.151L500.482 303.477L494.744 297.844C486.789 290.037 469.941 281.756 457.117 279.351C439.301 276.009 418.778 281.876 406.734 293.756C396.471 303.878 389.655 320.357 391.167 331.387C392.896 343.993 396.386 349.895 410.815 364.612C419.817 373.794 425.355 380.449 427.643 384.829C432.343 393.83 437.043 398.322 439.369 396.04C441.657 393.793 441.457 374.833 439.1 370.621C436.226 365.483 436.464 362.947 440.02 360.858C441.795 359.815 444.004 359.136 444.927 359.351C447.78 360.012 449.518 364.361 448.385 367.996C446.405 374.341 446.63 402.74 448.677 404.749C449.766 405.817 450.914 406.439 451.228 406.131C451.543 405.821 453.54 398.306 455.665 389.429C458.133 379.123 459.052 371.436 458.212 368.162C456.69 362.241 459.433 358.5 465.091 358.777C469.886 359.012 471.47 363.568 468.363 368.189C465.685 372.175 457.106 405.076 457.682 409.149C458.49 414.854 461.553 411.803 467.011 399.862C470.068 393.172 474.381 384.472 476.597 380.528C479.288 375.735 480.335 371.997 479.754 369.258C478.722 364.399 481.181 361.494 486.116 361.735C488.921 361.873 490.036 362.68 491.33 365.509C492.666 368.428 492.328 369.744 489.541 372.479C486.532 375.433 472.793 399.565 469.019 408.526C467.204 412.834 470.132 413.283 474.065 409.3C480.497 402.785 497.16 379.69 497.422 376.928C497.571 375.358 499.112 372.966 500.846 371.614C503.489 369.553 504.574 369.624 507.577 372.051C510.484 374.402 510.902 375.608 509.805 378.489C508.923 380.8 507.185 382.656 504.807 383.823C501.386 385.501 484.441 405.287 481.253 411.325C479.811 414.056 480.835 415.673 483.598 415.033C487.272 414.182 512.175 393.366 513.416 390.109C515.028 385.877 520.471 384.336 523.457 387.267C527.929 391.656 525.434 397.178 518.323 398.631C516.278 399.05 510.061 402.918 504.508 407.228C481.034 425.444 481.453 425.063 483.139 426.719C484.829 428.377 488.574 426.896 509.203 416.419C517.029 412.444 522.737 408.733 523.862 406.89C525.617 404.014 531.115 402.685 533.121 404.654C534.298 405.809 535.187 414.603 534.221 415.552C533.765 415.999 530.865 416.528 527.777 416.726C521.653 417.118 487.068 433.266 485.647 436.397C484.162 439.67 486.223 439.828 495.034 437.117C499.789 435.653 508.61 433.421 514.637 432.159C520.662 430.896 526.523 428.996 527.659 427.938C530.327 425.456 535.504 424.773 537.416 426.649C539.505 428.699 538.97 434.597 536.475 437.046C535.194 438.303 532.375 438.594 529.166 437.799C525.903 436.991 518.259 437.818 508.806 440.001C493.298 443.582 489.856 445.164 492.32 447.582C494.128 449.356 522.052 448.957 529.16 447.055C535.265 445.421 537.991 447.145 537.72 452.468C537.43 458.189 532.993 460.44 528.178 457.311C523.931 454.551 503.709 453.4 501.283 455.781C499.073 457.95 503.456 463.016 510.274 466.171C514.796 468.262 521.974 473.843 533.608 484.309C551.42 500.333 554.031 501.832 565.883 502.833C579.037 503.945 595.203 497.939 605.038 488.287C610.494 482.932 617.539 470.413 619.438 462.7C624.442 442.37 617.253 418.081 601.717 402.834C594.582 395.831 593.563 392.87 597.097 389.402C598.261 388.259 600.353 383.984 601.747 379.901C609.009 358.613 603.494 336.145 586.504 317.813C582.286 313.261 577.498 308.626 575.863 307.514ZM735.873 466.081C729.101 463.04 722.699 461.784 719.994 462.966C718.559 463.593 717.945 466.813 718.189 472.439C718.595 481.757 717.252 487.205 712.599 495.134C709.685 500.101 710.063 503.129 714.105 507.183C716.071 509.156 720.39 503.893 721.208 498.524C722.137 492.446 726.475 489.718 729.887 493.067C733.378 496.493 732.397 499.45 725.745 505.539C720.834 510.036 719.817 511.667 720.243 514.377C721.312 521.177 725.513 521.086 734.771 514.062C740.345 509.832 742.529 510.107 743.605 515.171C744.791 520.767 742.667 522.445 733.835 522.885C725.12 523.318 724.3 523.884 725.192 528.845C726.218 534.57 728.054 535.483 737.841 535.141C746.202 534.848 746.993 535.103 748.285 538.493C750.22 543.572 744.884 548.002 740.714 544.778C733.065 538.862 726.564 538.54 726.564 544.075C726.564 547.773 727.847 549.043 732.962 550.412C738.183 551.808 748.6 562.033 752.084 569.179C756.568 578.379 757.241 578.6 761.928 572.42C770.33 561.34 773.121 547.728 769.658 534.708C768.273 529.501 765.986 525.655 760.574 519.447L753.341 511.147L754.42 503.336C756.398 489.023 747.597 471.345 735.873 466.081ZM694.84 438.673C680.224 430.295 664.244 432.281 652.256 443.964C639.097 456.787 635.278 474.578 642.395 489.911C647.315 500.517 650.228 503.201 653.415 500.073C662.126 491.524 685.082 487.8 695.769 493.201C698.645 494.655 701.761 495.878 702.693 495.916C705.757 496.042 711.14 482.135 711.653 472.771C711.927 467.734 711.269 460.934 710.186 457.66C708.007 451.065 700.71 442.039 694.84 438.673ZM694.411 500.336C678.425 494.802 661.105 499.236 652.307 511.113C647.651 517.397 643.948 526.93 644.383 531.512C644.807 535.989 642.736 536.971 628.881 538.858L615.896 540.626L605.069 531.218C599.114 526.045 594.242 521.43 594.241 520.96C594.242 520.491 603.752 515.333 615.376 509.496C626.999 503.66 636.97 498.433 637.532 497.881C638.658 496.777 634.69 485.384 633.181 485.384C632.663 485.384 627.022 488.21 620.645 491.663C582.698 512.218 579.48 513.534 566.744 513.711C560.194 513.802 547.156 515.322 537.77 517.09C523.207 519.832 519.807 521.02 514.588 525.183C506.354 531.754 496.052 535.084 482.348 535.084C473.246 535.084 466.92 532.784 459.658 529.216C453.246 526.066 448.527 526.209 441.427 525.859C428.165 525.204 418.165 523.246 403.484 518.431C391.533 514.51 387.406 512.231 389.155 510.515C389.648 510.031 392.921 508.577 396.429 507.283C405.699 503.864 422.738 487.143 425.516 478.739C426.589 475.49 427.849 471.661 427.336 471.158C426.822 470.653 421.036 470.708 417.637 471.158C411.667 471.946 412.832 473.199 407.752 480.286C403.497 486.225 401.324 488.106 395.35 491.546C382.554 498.915 367.079 499.306 357.855 492.493C351.002 487.432 330.12 475.239 323.027 472.155C320.133 470.898 317.323 469.434 316.781 468.901C315.128 467.279 318.503 465.026 326.362 462.5C333.335 460.26 338.707 456.837 337.346 455.501C337.022 455.183 328.819 455.01 319.118 455.118C299.322 455.336 286.985 452.549 268.371 443.652C257.586 438.498 220.25 430.178 204.62 415.498C195.204 406.653 176.152 393.379 175.446 393.725C174.747 394.068 166.268 404.389 161.007 411.027C151.924 421.891 138.211 442.354 138.211 442.354C131.192 453.423 181.899 463.547 182.6 464.213C183.301 464.878 239.969 466.502 246.263 467.822C279.665 474.83 338.817 498.205 366.191 515.216C376.388 521.551 396.62 537.382 404.791 545.418C427.976 568.213 443.998 600.122 448.66 632.776C449.822 640.92 450.92 648.193 451.099 648.938C451.474 650.494 472.706 658.975 476.166 658.95C481.287 658.912 476.047 646.974 467.008 638.085C462.363 633.516 461.687 631.997 461.344 625.37C460.913 617.026 461.73 615.671 468.465 613.568C474.351 611.729 481.235 614.501 488.507 621.638C495.376 628.379 504.32 631.739 515.933 631.939L523.948 632.077L520.834 626.244C517.818 620.595 512.136 615.174 499.341 605.742L494.104 601.882L498.409 594.402C504.808 583.288 509.12 558.397 504.822 557.4C502.585 556.882 492.751 562.926 487.722 567.909C485.349 570.261 481.359 576.396 478.854 581.543C473.493 592.56 471.707 594.522 464.154 597.697C457.661 600.428 456.709 599.879 454.846 592.34C452.859 584.298 446.357 572.563 436.726 559.639C432.05 553.363 427.769 547.396 427.214 546.377C426.53 545.121 430.519 544.494 439.61 544.428C470.634 544.203 502.075 540.785 541.255 533.38C569.798 527.985 576.319 528.486 590.616 537.169C598.511 541.963 602.606 545.564 614.213 557.918C628.824 573.468 632.451 575.963 635.746 572.729C637.198 571.304 636.679 569.743 633.321 565.439C627.05 557.403 627.744 555.741 638.887 552.092C646.238 549.686 648.471 549.525 649.198 551.348C649.709 552.628 652.007 556.81 654.306 560.64C663.13 575.35 678.86 580.835 695.901 575.145C704.309 572.337 706.213 571.144 710.466 566.009C713.158 562.76 716.473 557.272 717.836 553.813C725.616 534.065 713.777 507.039 694.411 500.336ZM731.666 556.027C725.959 552.571 725.289 552.803 723.076 559.009C718.017 573.202 702.684 583.699 685.438 584.778L676.521 585.335L677.09 589.326C679.101 603.423 693.135 619.405 707.103 623.505C721.396 627.701 736.865 623.408 744.903 613.015C758.336 595.643 751.993 568.338 731.666 556.027ZM405.858 371.989C403.642 371.782 398.161 373.344 393.675 375.461C372.114 385.641 362.717 412.606 372.84 435.253C378.163 447.156 389.566 457.988 401.176 462.169C410.33 465.465 428.389 466.081 431.327 463.198C434.159 460.418 437.392 441.072 436.777 430.579C435.703 412.247 428.415 394.445 415.854 379.479C410.873 373.543 409.219 372.304 405.858 371.989ZM515.876 478.006C503.377 468.612 485.404 462.448 468.307 461.693C455.935 461.148 438.368 464.19 435.043 467.453C431.607 470.825 432.924 488.845 437.3 498.334C442.537 509.69 456.428 522.114 468.384 526.138C477.976 529.367 490.474 529.114 500.735 525.484C513.713 520.892 528.102 504.02 528.675 492.72C528.845 489.397 524.714 484.648 515.876 478.006ZM453.891 430.202C450.431 429.262 446.66 429.117 445.511 429.881C444.32 430.673 443.2 435.373 442.904 440.818C442.619 446.07 442.595 447.57 441.992 450.074C441.491 452.156 441.062 454.404 441.548 455.976C442.687 457.6 443.45 457.58 448.703 456.579C452.154 455.922 458.311 455.316 462.381 455.235C466.453 455.154 470.217 454.663 470.745 454.144C471.275 453.624 470.894 450.142 469.9 446.404C467.636 437.892 462.294 432.485 453.891 430.202ZM532.319 554.631C525.38 553.111 511.82 553.121 510.273 554.645C509.878 555.034 509.598 559.783 509.65 565.196C509.708 571.302 508.205 579.58 505.692 586.993L501.639 598.948L511.842 609.049C519.082 616.216 522.658 620.701 524.158 624.498C526.217 629.712 526.365 629.829 529.938 629.096C531.955 628.683 537.017 626.378 541.189 623.975C555.367 615.806 563.967 598.722 560.487 585.638C557.137 573.038 546.876 566.974 532.216 568.927C517.82 570.846 517.931 566.782 532.391 562.467C544.049 558.988 544.033 557.194 532.319 554.631Z" stroke="#665F5F" stroke-width="6" mask="url(#path-39-inside-1_1_2)"/>
<defs>
<linearGradient id="paint0_linear_1_2" x1="121.945" y1="907.33" x2="425.756" y2="930.874" gradientUnits="userSpaceOnUse">
<stop stop-color="#D0989F"/>
<stop offset="1" stop-color="white" stop-opacity="0"/>
</linearGradient>
<linearGradient id="paint1_linear_1_2" x1="162.455" y1="985.536" x2="265.178" y2="987.441" gradientUnits="userSpaceOnUse">
<stop stop-color="#D0989F"/>
<stop offset="1" stop-color="white" stop-opacity="0"/>
</linearGradient>
<linearGradient id="paint2_linear_1_2" x1="133.591" y1="937.895" x2="363.253" y2="950.403" gradientUnits="userSpaceOnUse">
<stop stop-color="#D0989F"/>
<stop offset="1" stop-color="white" stop-opacity="0"/>
</linearGradient>
<linearGradient id="paint3_linear_1_2" x1="112.422" y1="875.669" x2="488.57" y2="911.956" gradientUnits="userSpaceOnUse">
<stop stop-color="#D0989F"/>
<stop offset="1" stop-color="white" stop-opacity="0"/>
</linearGradient>
<linearGradient id="paint4_linear_1_2" x1="329.047" y1="921.466" x2="946.641" y2="940.017" gradientUnits="userSpaceOnUse">
<stop stop-color="#D0989F"/>
<stop offset="1" stop-color="white" stop-opacity="0"/>
</linearGradient>
<linearGradient id="paint5_linear_1_2" x1="242.628" y1="895.526" x2="951.142" y2="921.129" gradientUnits="userSpaceOnUse">
<stop stop-color="#D0989F"/>
<stop offset="1" stop-color="white" stop-opacity="0"/>
</linearGradient>
<linearGradient id="paint6_linear_1_2" x1="752.341" y1="513.002" x2="719.446" y2="529.017" gradientUnits="userSpaceOnUse">
<stop stop-color="#665F5F"/>
<stop offset="1" stop-color="#D9D9D9" stop-opacity="0"/>
</linearGradient>
<linearGradient id="paint7_linear_1_2" x1="438.644" y1="937.636" x2="941.723" y2="950.331" gradientUnits="userSpaceOnUse">
<stop stop-color="#D0989F"/>
<stop offset="1" stop-color="white" stop-opacity="0"/>
</linearGradient>
<linearGradient id="paint8_linear_1_2" x1="715.439" y1="951.362" x2="932.293" y2="954.539" gradientUnits="userSpaceOnUse">
<stop stop-color="#D0989F"/>
<stop offset="1" stop-color="white" stop-opacity="0"/>
</linearGradient>
<linearGradient id="paint9_linear_1_2" x1="146.455" y1="962.238" x2="310.608" y2="967.796" gradientUnits="userSpaceOnUse">
<stop stop-color="#D0989F"/>
<stop offset="1" stop-color="white" stop-opacity="0"/>
</linearGradient>
<linearGradient id="paint10_linear_1_2" x1="570.013" y1="945.904" x2="939.28" y2="953.098" gradientUnits="userSpaceOnUse">
<stop stop-color="#D0989F"/>
<stop offset="1" stop-color="white" stop-opacity="0"/>
</linearGradient>
<linearGradient id="paint11_linear_1_2" x1="144.538" y1="458.475" x2="709.382" y2="475.023" gradientUnits="userSpaceOnUse">
<stop stop-color="#665F5F"/>
<stop offset="1" stop-color="#665F5F" stop-opacity="0"/>
</linearGradient>
<linearGradient id="paint12_linear_1_2" x1="562.056" y1="591.365" x2="501.416" y2="614.029" gradientUnits="userSpaceOnUse">
<stop stop-color="#FFD1D7"/>
<stop offset="0.461804" stop-color="#E6B9BF"/>
<stop offset="1" stop-color="#B46E77"/>
</linearGradient>
<linearGradient id="paint13_linear_1_2" x1="530.038" y1="494.909" x2="454.297" y2="546.989" gradientUnits="userSpaceOnUse">
<stop stop-color="#FFD1D7"/>
<stop offset="0.461804" stop-color="#E6B9BF"/>
<stop offset="1" stop-color="#B46E77"/>
</linearGradient>
<linearGradient id="paint14_linear_1_2" x1="470.551" y1="443.296" x2="444.89" y2="456.386" gradientUnits="userSpaceOnUse">
<stop stop-color="#FFD1D7"/>
<stop offset="0.461804" stop-color="#E6B9BF"/>
<stop offset="1" stop-color="#B46E77"/>
</linearGradient>
<linearGradient id="paint15_linear_1_2" x1="438.625" y1="418.385" x2="367.613" y2="442.769" gradientUnits="userSpaceOnUse">
<stop stop-color="#FFD1D7"/>
<stop offset="0.461804" stop-color="#E6B9BF"/>
<stop offset="1" stop-color="#B46E77"/>
</linearGradient>
<linearGradient id="paint16_linear_1_2" x1="712.997" y1="467.663" x2="645.239" y2="502.22" gradientUnits="userSpaceOnUse">
<stop stop-color="#FFD1D7"/>
<stop offset="0.461804" stop-color="#E6B9BF"/>
<stop offset="1" stop-color="#B46E77"/>
</linearGradient>
<linearGradient id="paint17_linear_1_2" x1="753.613" y1="589.688" x2="683.728" y2="625.255" gradientUnits="userSpaceOnUse">
<stop stop-color="#FFD1D7"/>
<stop offset="0.461804" stop-color="#E6B9BF"/>
<stop offset="1" stop-color="#B46E77"/>
</linearGradient>
<linearGradient id="paint18_linear_1_2" x1="771.156" y1="519.609" x2="719.663" y2="533.567" gradientUnits="userSpaceOnUse">
<stop stop-color="#FFD1D7"/>
<stop offset="0.461804" stop-color="#E6B9BF"/>
<stop offset="1" stop-color="#B46E77"/>
</linearGradient>
<linearGradient id="paint19_linear_1_2" x1="530.087" y1="376.999" x2="466.62" y2="431.628" gradientUnits="userSpaceOnUse">
<stop stop-color="#665F5F"/>
<stop offset="1" stop-color="#D9D9D9" stop-opacity="0"/>
</linearGradient>
<linearGradient id="paint20_linear_1_2" x1="628.667" y1="390.242" x2="501.888" y2="496.85" gradientUnits="userSpaceOnUse">
<stop stop-color="#FFD1D7"/>
<stop offset="0.461804" stop-color="#E6B9BF"/>
<stop offset="1" stop-color="#B46E77"/>
</linearGradient>
<linearGradient id="paint21_linear_1_2" x1="645.951" y1="541.923" x2="723.482" y2="508.274" gradientUnits="userSpaceOnUse">
<stop stop-color="#C9C9C9"/>
<stop offset="0.761209" stop-color="#E9BCC2"/>
</linearGradient>
<linearGradient id="paint22_linear_1_2" x1="696.903" y1="445.137" x2="745.537" y2="351.53" gradientUnits="userSpaceOnUse">
<stop stop-color="#665F5F"/>
<stop offset="1" stop-color="#665F5F" stop-opacity="0"/>
</linearGradient>
<linearGradient id="paint23_linear_1_2" x1="731.94" y1="294.096" x2="741.145" y2="374.498" gradientUnits="userSpaceOnUse">
<stop stop-color="#FFD1D7"/>
<stop offset="0.617708" stop-color="#D9ADB2"/>
<stop offset="1" stop-color="#BAB8B8"/>
</linearGradient>
<linearGradient id="paint24_linear_1_2" x1="868.639" y1="380.186" x2="829.248" y2="398.236" gradientUnits="userSpaceOnUse">
<stop stop-color="#FFD1D7"/>
<stop offset="0.461804" stop-color="#E6B9BF"/>
<stop offset="1" stop-color="#B46E77"/>
</linearGradient>
</defs>
</svg>
